<svg xmlns="http://www.w3.org/2000/svg" xmlns:xlink="http://www.w3.org/1999/xlink" width="500" zoomAndPan="magnify" viewBox="0 0 375 374.999991" height="500" preserveAspectRatio="xMidYMid meet" version="1.0"><defs><clipPath id="9d4600c1af"><path d="M 13 184.4375 L 362 184.4375 L 362 300 L 13 300 Z M 13 184.4375 " clip-rule="nonzero"/></clipPath><clipPath id="5541e97222"><path d="M 95.015625 57.042969 L 280.265625 57.042969 L 280.265625 221.292969 L 95.015625 221.292969 Z M 95.015625 57.042969 " clip-rule="nonzero"/></clipPath></defs><g clip-path="url(#9d4600c1af)"><path fill="#ffffff" d="M 312.515625 200.707031 L 62.472656 200.707031 C 48.910156 200.707031 36.574219 206.257812 27.632812 215.203125 C 18.691406 224.148438 13.136719 236.480469 13.136719 250.042969 C 13.136719 263.609375 18.6875 275.945312 27.632812 284.886719 C 36.578125 293.828125 48.910156 299.382812 62.472656 299.382812 L 312.519531 299.382812 C 326.082031 299.382812 338.417969 293.832031 347.359375 284.886719 C 356.300781 275.945312 361.855469 263.609375 361.855469 250.042969 C 361.855469 236.480469 356.304688 224.144531 347.359375 215.203125 C 338.417969 206.261719 326.082031 200.707031 312.519531 200.707031 Z M 312.609375 220.058594 C 320.828125 220.058594 328.296875 223.421875 333.714844 228.84375 C 339.132812 234.261719 342.496094 241.734375 342.496094 249.945312 L 342.496094 250.140625 C 342.496094 258.359375 339.132812 265.828125 333.714844 271.242188 C 328.292969 276.664062 320.824219 280.027344 312.609375 280.027344 L 62.375 280.027344 C 54.15625 280.027344 46.6875 276.664062 41.269531 271.242188 C 35.851562 265.824219 32.488281 258.355469 32.488281 250.140625 L 32.488281 249.945312 C 32.488281 241.730469 35.851562 234.257812 41.269531 228.84375 C 46.691406 223.425781 54.160156 220.058594 62.375 220.058594 Z M 62.378906 211.691406 L 312.609375 211.691406 C 323.136719 211.691406 332.703125 215.992188 339.632812 222.925781 C 346.5625 229.859375 350.867188 239.425781 350.867188 249.949219 L 350.867188 250.144531 C 350.867188 260.671875 346.5625 270.238281 339.632812 277.167969 C 332.703125 284.097656 323.136719 288.402344 312.609375 288.402344 L 62.375 288.402344 C 51.847656 288.402344 42.28125 284.101562 35.351562 277.167969 C 28.421875 270.234375 24.117188 260.667969 24.117188 250.144531 L 24.117188 249.949219 C 24.117188 239.421875 28.421875 229.855469 35.351562 222.925781 C 42.285156 215.996094 51.847656 211.691406 62.375 211.691406 Z M 312.707031 -6.042969 C 311.246094 -6.640625 309.765625 -7.164062 308.277344 -7.613281 C 306.738281 -7.964844 305.464844 -9.175781 305.117188 -10.820312 L 302.890625 -21.148438 L 285.886719 -20.9375 L 284.007812 -11.03125 C 283.789062 -9.457031 282.683594 -8.074219 281.058594 -7.597656 C 279.46875 -7.121094 277.910156 -6.5625 276.390625 -5.925781 C 274.90625 -5.308594 273.484375 -4.628906 272.136719 -3.898438 C 270.8125 -3.074219 269.074219 -3.03125 267.667969 -3.929688 L 258.769531 -9.671875 L 246.902344 2.5 L 252.652344 10.945312 C 253.542969 12.199219 253.699219 13.898438 252.921875 15.34375 C 252.117188 16.832031 251.40625 18.332031 250.792969 19.828125 C 250.191406 21.285156 249.667969 22.765625 249.21875 24.257812 C 248.867188 25.796875 247.65625 27.066406 246.015625 27.414062 L 235.683594 29.644531 L 235.894531 46.644531 L 245.800781 48.527344 C 247.378906 48.746094 248.757812 49.851562 249.238281 51.472656 C 249.714844 53.0625 250.269531 54.625 250.902344 56.144531 C 251.523438 57.628906 252.203125 59.046875 252.929688 60.394531 C 253.757812 61.722656 253.800781 63.460938 252.898438 64.863281 L 247.152344 73.765625 L 259.328125 85.636719 L 267.773438 79.890625 C 269.027344 79 270.726562 78.839844 272.167969 79.617188 C 273.65625 80.425781 275.15625 81.136719 276.652344 81.75 C 278.113281 82.347656 279.589844 82.871094 281.082031 83.320312 C 282.621094 83.675781 283.890625 84.882812 284.242188 86.527344 L 286.46875 96.859375 L 303.472656 96.648438 L 305.351562 86.738281 C 305.570312 85.164062 306.675781 83.785156 308.300781 83.304688 C 309.890625 82.828125 311.449219 82.273438 312.96875 81.636719 C 314.453125 81.019531 315.875 80.339844 317.222656 79.609375 C 318.546875 78.785156 320.285156 78.742188 321.691406 79.640625 L 330.59375 85.382812 L 342.464844 73.210938 L 336.714844 64.765625 C 335.828125 63.511719 335.667969 61.8125 336.445312 60.367188 C 337.25 58.882812 337.960938 57.382812 338.574219 55.886719 C 339.175781 54.425781 339.699219 52.945312 340.148438 51.453125 C 340.5 49.917969 341.710938 48.644531 343.351562 48.296875 L 353.683594 46.066406 L 353.472656 29.066406 L 343.566406 27.1875 C 341.992188 26.96875 340.609375 25.859375 340.128906 24.238281 C 339.652344 22.648438 339.097656 21.089844 338.464844 19.570312 C 337.847656 18.085938 337.167969 16.664062 336.4375 15.316406 C 335.613281 13.992188 335.566406 12.253906 336.46875 10.847656 L 342.214844 1.945312 L 330.042969 -9.925781 L 321.59375 -4.175781 C 320.339844 -3.289062 318.644531 -3.128906 317.199219 -3.90625 C 315.710938 -4.710938 314.210938 -5.421875 312.714844 -6.039062 Z M 274.910156 18.574219 C 279.847656 13.515625 286.710938 10.335938 294.34375 10.242188 C 301.96875 10.144531 308.90625 13.148438 313.960938 18.082031 C 319.019531 23.015625 322.199219 29.882812 322.292969 37.515625 C 322.390625 45.140625 319.386719 52.078125 314.453125 57.132812 C 309.519531 62.191406 302.652344 65.371094 295.019531 65.464844 C 287.394531 65.558594 280.457031 62.554688 275.402344 57.625 C 270.34375 52.6875 267.164062 45.824219 267.070312 38.191406 C 266.976562 30.566406 269.980469 23.628906 274.910156 18.574219 Z M 230.050781 161.261719 L 270.207031 161.261719 C 272.519531 161.261719 274.394531 163.132812 274.394531 165.445312 L 274.394531 173.726562 L 307.605469 148.816406 L 274.394531 123.902344 L 274.394531 132.183594 C 274.394531 134.496094 272.519531 136.367188 270.207031 136.367188 L 230.050781 136.367188 Z M 73.941406 240.945312 C 76.269531 243.273438 77.710938 246.492188 77.710938 250.050781 C 77.710938 253.609375 76.269531 256.824219 73.941406 259.15625 C 71.613281 261.484375 68.394531 262.921875 64.835938 262.921875 C 61.277344 262.921875 58.066406 261.484375 55.734375 259.15625 C 53.398438 256.828125 51.964844 253.609375 51.964844 250.050781 C 51.964844 246.492188 53.402344 243.277344 55.734375 240.945312 C 58.0625 238.613281 61.28125 237.175781 64.835938 237.175781 C 68.398438 237.175781 71.609375 238.617188 73.941406 240.945312 Z M 64.835938 228.804688 C 70.699219 228.804688 76.015625 231.179688 79.859375 235.027344 C 83.703125 238.871094 86.082031 244.183594 86.082031 250.046875 C 86.082031 255.910156 83.703125 261.222656 79.859375 265.070312 C 76.015625 268.914062 70.703125 271.289062 64.835938 271.289062 C 58.972656 271.289062 53.660156 268.914062 49.816406 265.070312 C 45.972656 261.222656 43.59375 255.914062 43.59375 250.046875 C 43.59375 244.183594 45.972656 238.871094 49.816406 235.027344 C 53.660156 231.179688 58.972656 228.804688 64.835938 228.804688 Z M 135.703125 240.945312 C 138.03125 243.273438 139.472656 246.492188 139.472656 250.050781 C 139.472656 253.609375 138.03125 256.824219 135.703125 259.15625 C 133.375 261.484375 130.15625 262.921875 126.597656 262.921875 C 123.039062 262.921875 119.824219 261.484375 117.492188 259.15625 C 115.160156 256.828125 113.726562 253.609375 113.726562 250.050781 C 113.726562 246.492188 115.164062 243.277344 117.492188 240.945312 C 119.820312 238.613281 123.039062 237.175781 126.597656 237.175781 C 130.15625 237.175781 133.371094 238.617188 135.703125 240.945312 Z M 126.597656 228.804688 C 132.460938 228.804688 137.777344 231.179688 141.621094 235.027344 C 145.464844 238.871094 147.839844 244.183594 147.839844 250.046875 C 147.839844 255.910156 145.464844 261.222656 141.621094 265.070312 C 137.777344 268.914062 132.464844 271.289062 126.597656 271.289062 C 120.734375 271.289062 115.421875 268.914062 111.578125 265.070312 C 107.730469 261.222656 105.355469 255.914062 105.355469 250.046875 C 105.355469 244.183594 107.730469 238.871094 111.578125 235.027344 C 115.421875 231.179688 120.734375 228.804688 126.597656 228.804688 Z M 197.464844 240.945312 C 199.792969 243.273438 201.234375 246.492188 201.234375 250.050781 C 201.234375 253.609375 199.792969 256.824219 197.464844 259.15625 C 195.136719 261.488281 191.917969 262.921875 188.359375 262.921875 C 184.800781 262.921875 181.585938 261.484375 179.253906 259.15625 C 176.925781 256.828125 175.484375 253.609375 175.484375 250.050781 C 175.484375 246.492188 176.925781 243.277344 179.253906 240.945312 C 181.582031 238.617188 184.800781 237.175781 188.359375 237.175781 C 191.917969 237.175781 195.132812 238.617188 197.464844 240.945312 Z M 188.359375 228.804688 C 194.222656 228.804688 199.535156 231.179688 203.382812 235.027344 C 207.226562 238.871094 209.601562 244.183594 209.601562 250.046875 C 209.601562 255.910156 207.226562 261.222656 203.382812 265.070312 C 199.535156 268.914062 194.226562 271.289062 188.359375 271.289062 C 182.496094 271.289062 177.183594 268.914062 173.339844 265.070312 C 169.492188 261.222656 167.117188 255.914062 167.117188 250.046875 C 167.117188 244.183594 169.492188 238.871094 173.339844 235.027344 C 177.183594 231.179688 182.496094 228.804688 188.359375 228.804688 Z M 259.226562 240.945312 C 261.554688 243.273438 262.996094 246.492188 262.996094 250.050781 C 262.996094 253.609375 261.554688 256.824219 259.226562 259.15625 C 256.898438 261.488281 253.679688 262.921875 250.121094 262.921875 C 246.5625 262.921875 243.347656 261.484375 241.015625 259.15625 C 238.683594 256.828125 237.246094 253.609375 237.246094 250.050781 C 237.246094 246.492188 238.6875 243.277344 241.015625 240.945312 C 243.34375 238.613281 246.5625 237.175781 250.121094 237.175781 C 253.679688 237.175781 256.894531 238.617188 259.226562 240.945312 Z M 250.121094 228.804688 C 255.984375 228.804688 261.296875 231.179688 265.140625 235.027344 C 268.988281 238.871094 271.363281 244.183594 271.363281 250.046875 C 271.363281 255.910156 268.988281 261.222656 265.140625 265.070312 C 261.296875 268.914062 255.984375 271.289062 250.121094 271.289062 C 244.257812 271.289062 238.945312 268.914062 235.097656 265.070312 C 231.253906 261.222656 228.878906 255.914062 228.878906 250.046875 C 228.878906 244.183594 231.253906 238.871094 235.097656 235.027344 C 238.945312 231.179688 244.257812 228.804688 250.121094 228.804688 Z M 119.007812 150.699219 C 121.320312 150.699219 123.195312 152.570312 123.195312 154.882812 C 123.195312 157.195312 121.320312 159.070312 119.007812 159.070312 L 89.070312 159.070312 C 86.757812 159.070312 84.882812 157.195312 84.882812 154.882812 C 84.882812 152.570312 86.757812 150.699219 89.070312 150.699219 Z M 89.070312 140.828125 C 86.757812 140.828125 84.882812 138.953125 84.882812 136.640625 C 84.882812 134.328125 86.757812 132.457031 89.070312 132.457031 L 119.007812 132.457031 C 121.320312 132.457031 123.195312 134.328125 123.195312 136.640625 C 123.195312 138.953125 121.320312 140.828125 119.007812 140.828125 Z M 320.988281 240.945312 C 323.316406 243.273438 324.753906 246.492188 324.753906 250.046875 C 324.753906 253.609375 323.316406 256.820312 320.988281 259.152344 C 318.65625 261.484375 315.441406 262.921875 311.882812 262.921875 C 308.320312 262.921875 305.109375 261.480469 302.777344 259.152344 C 300.449219 256.824219 299.007812 253.605469 299.007812 250.046875 C 299.007812 246.488281 300.449219 243.277344 302.777344 240.945312 C 305.105469 238.613281 308.324219 237.175781 311.882812 237.175781 C 315.441406 237.175781 318.652344 238.613281 320.988281 240.945312 Z M 311.882812 228.804688 C 317.746094 228.804688 323.058594 231.179688 326.902344 235.023438 C 330.75 238.871094 333.125 244.179688 333.125 250.046875 C 333.125 255.910156 330.746094 261.222656 326.902344 265.066406 C 323.058594 268.914062 317.746094 271.289062 311.882812 271.289062 C 306.019531 271.289062 300.703125 268.914062 296.859375 265.066406 C 293.015625 261.222656 290.640625 255.910156 290.640625 250.046875 C 290.640625 244.183594 293.015625 238.871094 296.859375 235.023438 C 300.703125 231.179688 306.015625 228.804688 311.882812 228.804688 Z M 147.027344 79.1875 L 136.03125 68.195312 L 125.035156 79.1875 C 124.902344 79.328125 124.753906 79.457031 124.597656 79.578125 C 124.515625 79.640625 124.433594 79.699219 124.34375 79.757812 C 124.257812 79.820312 124.171875 79.871094 124.082031 79.921875 C 123.480469 80.257812 122.785156 80.449219 122.046875 80.449219 C 121.308594 80.449219 120.613281 80.261719 120.011719 79.921875 C 119.917969 79.871094 119.832031 79.820312 119.75 79.757812 C 119.660156 79.699219 119.578125 79.640625 119.496094 79.578125 C 119.214844 79.359375 118.960938 79.105469 118.742188 78.824219 C 118.675781 78.738281 118.617188 78.65625 118.558594 78.570312 C 118.503906 78.480469 118.449219 78.394531 118.398438 78.304688 C 118.0625 77.699219 117.871094 77.003906 117.871094 76.261719 L 117.871094 38.484375 L 69.652344 38.484375 L 69.652344 171.265625 L 202.4375 171.265625 L 202.4375 38.488281 L 154.21875 38.488281 L 154.21875 76.269531 C 154.21875 77.007812 154.027344 77.703125 153.691406 78.304688 C 153.636719 78.398438 153.585938 78.484375 153.53125 78.570312 C 153.472656 78.664062 153.414062 78.746094 153.347656 78.828125 C 153.132812 79.113281 152.875 79.367188 152.59375 79.585938 C 152.511719 79.648438 152.429688 79.707031 152.339844 79.765625 C 152.253906 79.824219 152.167969 79.878906 152.078125 79.929688 C 151.476562 80.265625 150.78125 80.457031 150.042969 80.457031 C 149.304688 80.457031 148.609375 80.265625 148.007812 79.929688 C 147.917969 79.878906 147.828125 79.824219 147.746094 79.765625 C 147.65625 79.707031 147.574219 79.648438 147.492188 79.585938 C 147.335938 79.464844 147.191406 79.332031 147.054688 79.195312 Z M 126.226562 66.164062 L 126.226562 38.488281 L 145.839844 38.488281 L 145.839844 66.164062 L 138.992188 59.316406 C 137.355469 57.679688 134.707031 57.679688 133.078125 59.316406 L 126.230469 66.164062 Z M 126.226562 66.164062 " fill-opacity="1" fill-rule="evenodd"/></g><g clip-path="url(#5541e97222)"><path fill="#ffffff" d="M 369.6875 234.527344 L 119.648438 234.527344 C 106.082031 234.527344 93.746094 240.078125 84.804688 249.023438 C 75.863281 257.972656 70.308594 270.300781 70.308594 283.867188 C 70.308594 297.429688 75.859375 309.765625 84.804688 318.707031 C 93.753906 327.648438 106.082031 333.203125 119.648438 333.203125 L 369.691406 333.203125 C 383.257812 333.203125 395.59375 327.652344 404.535156 318.707031 C 413.476562 309.765625 419.03125 297.429688 419.03125 283.867188 C 419.03125 270.300781 413.480469 257.964844 404.535156 249.023438 C 395.589844 240.082031 383.257812 234.527344 369.691406 234.527344 Z M 369.785156 253.878906 C 378 253.878906 385.472656 257.246094 390.886719 262.664062 C 396.308594 268.082031 399.671875 275.554688 399.671875 283.765625 L 399.671875 283.960938 C 399.671875 292.179688 396.308594 299.648438 390.886719 305.066406 C 385.46875 310.484375 377.996094 313.847656 369.785156 313.847656 L 119.546875 313.847656 C 111.332031 313.847656 103.859375 310.484375 98.445312 305.066406 C 93.027344 299.644531 89.660156 292.175781 89.660156 283.960938 L 89.660156 283.765625 C 89.660156 275.550781 93.027344 268.078125 98.445312 262.664062 C 103.863281 257.25 111.335938 253.878906 119.546875 253.878906 Z M 119.550781 245.511719 L 369.785156 245.511719 C 380.308594 245.511719 389.875 249.8125 396.808594 256.75 C 403.738281 263.679688 408.042969 273.246094 408.042969 283.769531 L 408.042969 283.964844 C 408.042969 294.492188 403.738281 304.058594 396.808594 310.988281 C 389.875 317.917969 380.308594 322.222656 369.785156 322.222656 L 119.546875 322.222656 C 109.023438 322.222656 99.457031 317.921875 92.527344 310.988281 C 85.59375 304.054688 81.289062 294.492188 81.289062 283.964844 L 81.289062 283.769531 C 81.289062 273.246094 85.59375 263.679688 92.527344 256.75 C 99.457031 249.816406 109.023438 245.511719 119.546875 245.511719 Z M 369.878906 27.78125 C 368.421875 27.179688 366.941406 26.65625 365.449219 26.207031 C 363.910156 25.855469 362.640625 24.644531 362.292969 23.003906 L 360.0625 12.671875 L 343.0625 12.882812 L 341.179688 22.789062 C 340.960938 24.363281 339.855469 25.746094 338.234375 26.226562 C 336.640625 26.703125 335.082031 27.261719 333.5625 27.894531 C 332.078125 28.515625 330.660156 29.191406 329.3125 29.921875 C 327.984375 30.746094 326.246094 30.792969 324.84375 29.890625 L 315.945312 24.148438 L 304.074219 36.320312 L 309.828125 44.769531 C 310.714844 46.023438 310.875 47.722656 310.097656 49.164062 C 309.292969 50.652344 308.582031 52.152344 307.964844 53.648438 C 307.367188 55.105469 306.839844 56.585938 306.394531 58.078125 C 306.042969 59.617188 304.832031 60.886719 303.1875 61.238281 L 292.859375 63.464844 L 293.070312 80.46875 L 302.976562 82.347656 C 304.550781 82.566406 305.933594 83.671875 306.410156 85.292969 C 306.886719 86.886719 307.441406 88.445312 308.078125 89.964844 C 308.695312 91.449219 309.375 92.871094 310.105469 94.21875 C 310.929688 95.542969 310.972656 97.28125 310.074219 98.683594 L 304.328125 107.589844 L 316.5 119.457031 L 324.945312 113.710938 C 326.199219 112.820312 327.898438 112.664062 329.34375 113.441406 C 330.832031 114.246094 332.332031 114.957031 333.824219 115.570312 C 335.285156 116.171875 336.765625 116.695312 338.257812 117.144531 C 339.796875 117.496094 341.066406 118.707031 341.414062 120.347656 L 343.644531 130.679688 L 360.644531 130.46875 L 362.527344 120.5625 C 362.742188 118.984375 363.851562 117.605469 365.472656 117.125 C 367.0625 116.648438 368.621094 116.09375 370.144531 115.460938 C 371.628906 114.839844 373.046875 114.164062 374.394531 113.433594 C 375.722656 112.605469 377.460938 112.5625 378.863281 113.460938 L 387.765625 119.207031 L 399.636719 107.03125 L 393.886719 98.585938 C 393 97.332031 392.839844 95.632812 393.617188 94.191406 C 394.425781 92.703125 395.136719 91.203125 395.75 89.707031 C 396.347656 88.246094 396.871094 86.769531 397.320312 85.277344 C 397.675781 83.742188 398.882812 82.46875 400.527344 82.117188 L 410.859375 79.890625 L 410.648438 62.886719 L 400.738281 61.007812 C 399.164062 60.789062 397.785156 59.683594 397.304688 58.058594 C 396.828125 56.46875 396.273438 54.910156 395.636719 53.390625 C 395.019531 51.90625 394.339844 50.484375 393.609375 49.136719 C 392.785156 47.8125 392.742188 46.074219 393.644531 44.671875 L 399.386719 35.765625 L 387.214844 23.894531 L 378.769531 29.644531 C 377.515625 30.535156 375.816406 30.691406 374.371094 29.914062 C 372.882812 29.109375 371.386719 28.398438 369.890625 27.785156 Z M 332.082031 52.394531 C 337.019531 47.335938 343.886719 44.160156 351.515625 44.0625 C 359.140625 43.96875 366.082031 46.972656 371.136719 51.902344 C 376.195312 56.839844 379.371094 63.707031 379.46875 71.335938 C 379.5625 78.960938 376.558594 85.898438 371.628906 90.953125 C 366.691406 96.015625 359.824219 99.191406 352.195312 99.285156 C 344.570312 99.382812 337.628906 96.378906 332.574219 91.445312 C 327.515625 86.511719 324.339844 79.644531 324.242188 72.015625 C 324.148438 64.390625 327.152344 57.449219 332.082031 52.394531 Z M 287.222656 195.082031 L 327.382812 195.082031 C 329.695312 195.082031 331.566406 196.957031 331.566406 199.269531 L 331.566406 207.546875 L 364.777344 182.636719 L 331.566406 157.722656 L 331.566406 166.003906 C 331.566406 168.316406 329.695312 170.191406 327.382812 170.191406 L 287.222656 170.191406 Z M 131.117188 274.765625 C 133.445312 277.09375 134.886719 280.3125 134.886719 283.871094 C 134.886719 287.429688 133.445312 290.644531 131.117188 292.976562 C 128.789062 295.304688 125.570312 296.746094 122.011719 296.746094 C 118.453125 296.746094 115.238281 295.304688 112.90625 292.976562 C 110.574219 290.648438 109.136719 287.429688 109.136719 283.871094 C 109.136719 280.3125 110.578125 277.097656 112.90625 274.765625 C 115.234375 272.433594 118.453125 270.996094 122.011719 270.996094 C 125.570312 270.996094 128.785156 272.4375 131.117188 274.765625 Z M 122.011719 262.625 C 127.875 262.625 133.1875 265.003906 137.03125 268.847656 C 140.878906 272.691406 143.253906 278.003906 143.253906 283.867188 C 143.253906 289.730469 140.878906 295.046875 137.03125 298.890625 C 133.1875 302.734375 127.875 305.113281 122.011719 305.113281 C 116.148438 305.113281 110.835938 302.734375 106.988281 298.890625 C 103.144531 295.046875 100.769531 289.734375 100.769531 283.867188 C 100.769531 278.003906 103.144531 272.691406 106.988281 268.847656 C 110.835938 265.003906 116.144531 262.625 122.011719 262.625 Z M 192.878906 274.765625 C 195.207031 277.09375 196.644531 280.3125 196.644531 283.871094 C 196.644531 287.429688 195.207031 290.644531 192.878906 292.976562 C 190.550781 295.304688 187.332031 296.746094 183.773438 296.746094 C 180.214844 296.746094 177 295.304688 174.667969 292.976562 C 172.335938 290.648438 170.898438 287.429688 170.898438 283.871094 C 170.898438 280.3125 172.339844 277.097656 174.667969 274.765625 C 176.996094 272.433594 180.214844 270.996094 183.773438 270.996094 C 187.332031 270.996094 190.546875 272.4375 192.878906 274.765625 Z M 183.773438 262.625 C 189.636719 262.625 194.949219 265.003906 198.792969 268.847656 C 202.640625 272.691406 205.015625 278.003906 205.015625 283.867188 C 205.015625 289.730469 202.640625 295.046875 198.792969 298.890625 C 194.949219 302.734375 189.636719 305.113281 183.773438 305.113281 C 177.910156 305.113281 172.59375 302.734375 168.75 298.890625 C 164.90625 295.046875 162.53125 289.734375 162.53125 283.867188 C 162.53125 278.003906 164.90625 272.691406 168.75 268.847656 C 172.59375 265.003906 177.90625 262.625 183.773438 262.625 Z M 254.636719 274.765625 C 256.96875 277.09375 258.40625 280.3125 258.40625 283.871094 C 258.40625 287.429688 256.96875 290.644531 254.636719 292.976562 C 252.308594 295.308594 249.089844 296.746094 245.535156 296.746094 C 241.972656 296.746094 238.761719 295.304688 236.429688 292.976562 C 234.101562 290.648438 232.660156 287.429688 232.660156 283.871094 C 232.660156 280.3125 234.101562 277.097656 236.429688 274.765625 C 238.757812 272.4375 241.976562 270.996094 245.535156 270.996094 C 249.09375 270.996094 252.304688 272.4375 254.636719 274.765625 Z M 245.535156 262.625 C 251.398438 262.625 256.710938 265.003906 260.554688 268.847656 C 264.398438 272.691406 266.777344 278.003906 266.777344 283.867188 C 266.777344 289.730469 264.398438 295.046875 260.554688 298.890625 C 256.710938 302.734375 251.398438 305.113281 245.535156 305.113281 C 239.671875 305.113281 234.355469 302.734375 230.511719 298.890625 C 226.667969 295.046875 224.289062 289.734375 224.289062 283.867188 C 224.289062 278.003906 226.667969 272.691406 230.511719 268.847656 C 234.355469 265.003906 239.667969 262.625 245.535156 262.625 Z M 316.398438 274.765625 C 318.726562 277.09375 320.167969 280.3125 320.167969 283.871094 C 320.167969 287.429688 318.726562 290.644531 316.398438 292.976562 C 314.070312 295.308594 310.851562 296.746094 307.292969 296.746094 C 303.734375 296.746094 300.523438 295.304688 298.191406 292.976562 C 295.855469 290.648438 294.421875 287.429688 294.421875 283.871094 C 294.421875 280.3125 295.859375 277.097656 298.191406 274.765625 C 300.519531 272.433594 303.738281 270.996094 307.292969 270.996094 C 310.855469 270.996094 314.066406 272.4375 316.398438 274.765625 Z M 307.292969 262.625 C 313.15625 262.625 318.472656 265.003906 322.316406 268.847656 C 326.160156 272.691406 328.539062 278.003906 328.539062 283.867188 C 328.539062 289.730469 326.160156 295.046875 322.316406 298.890625 C 318.472656 302.734375 313.160156 305.113281 307.292969 305.113281 C 301.429688 305.113281 296.117188 302.734375 292.273438 298.890625 C 288.429688 295.046875 286.050781 289.734375 286.050781 283.867188 C 286.050781 278.003906 288.429688 272.691406 292.273438 268.847656 C 296.117188 265.003906 301.429688 262.625 307.292969 262.625 Z M 176.183594 184.519531 C 178.496094 184.519531 180.367188 186.390625 180.367188 188.703125 C 180.367188 191.019531 178.496094 192.890625 176.183594 192.890625 L 146.242188 192.890625 C 143.929688 192.890625 142.058594 191.019531 142.058594 188.703125 C 142.058594 186.390625 143.929688 184.519531 146.242188 184.519531 Z M 146.242188 174.648438 C 143.929688 174.648438 142.058594 172.777344 142.058594 170.460938 C 142.058594 168.148438 143.929688 166.277344 146.242188 166.277344 L 176.183594 166.277344 C 178.496094 166.277344 180.367188 168.148438 180.367188 170.460938 C 180.367188 172.777344 178.496094 174.648438 176.183594 174.648438 Z M 378.160156 274.765625 C 380.488281 277.09375 381.929688 280.3125 381.929688 283.871094 C 381.929688 287.429688 380.488281 290.644531 378.160156 292.976562 C 375.832031 295.308594 372.613281 296.742188 369.054688 296.742188 C 365.496094 296.742188 362.28125 295.304688 359.949219 292.976562 C 357.621094 290.648438 356.183594 287.429688 356.183594 283.871094 C 356.183594 280.3125 357.621094 277.097656 359.949219 274.765625 C 362.277344 272.4375 365.496094 270.996094 369.054688 270.996094 C 372.613281 270.996094 375.828125 272.4375 378.160156 274.765625 Z M 369.054688 262.625 C 374.917969 262.625 380.230469 265 384.078125 268.847656 C 387.921875 272.691406 390.296875 278.003906 390.296875 283.867188 C 390.296875 289.730469 387.921875 295.042969 384.078125 298.890625 C 380.230469 302.734375 374.921875 305.109375 369.054688 305.109375 C 363.191406 305.109375 357.878906 302.734375 354.035156 298.890625 C 350.1875 295.042969 347.8125 289.730469 347.8125 283.867188 C 347.8125 278.003906 350.1875 272.691406 354.035156 268.847656 C 357.878906 265 363.191406 262.625 369.054688 262.625 Z M 204.203125 113.011719 L 193.203125 102.015625 L 182.210938 113.011719 C 182.074219 113.148438 181.929688 113.28125 181.773438 113.398438 C 181.6875 113.460938 181.605469 113.523438 181.519531 113.582031 C 181.429688 113.640625 181.34375 113.691406 181.257812 113.742188 C 180.652344 114.082031 179.957031 114.273438 179.222656 114.273438 C 178.484375 114.273438 177.789062 114.082031 177.183594 113.742188 C 177.09375 113.691406 177.007812 113.640625 176.921875 113.582031 C 176.835938 113.523438 176.753906 113.460938 176.667969 113.398438 C 176.386719 113.179688 176.132812 112.925781 175.914062 112.644531 C 175.851562 112.5625 175.792969 112.476562 175.734375 112.390625 C 175.675781 112.300781 175.621094 112.214844 175.574219 112.125 C 175.238281 111.519531 175.046875 110.828125 175.046875 110.085938 L 175.046875 72.304688 L 126.828125 72.304688 L 126.828125 205.085938 L 259.609375 205.085938 L 259.609375 72.3125 L 211.390625 72.3125 L 211.390625 110.089844 C 211.390625 110.828125 211.203125 111.523438 210.863281 112.128906 C 210.8125 112.21875 210.761719 112.304688 210.707031 112.394531 C 210.644531 112.484375 210.585938 112.566406 210.523438 112.652344 C 210.304688 112.933594 210.050781 113.1875 209.769531 113.40625 C 209.683594 113.46875 209.601562 113.527344 209.515625 113.585938 C 209.425781 113.648438 209.339844 113.699219 209.253906 113.75 C 208.648438 114.085938 207.953125 114.277344 207.21875 114.277344 C 206.480469 114.277344 205.785156 114.089844 205.179688 113.75 C 205.089844 113.699219 205.003906 113.648438 204.917969 113.585938 C 204.832031 113.527344 204.75 113.46875 204.664062 113.40625 C 204.511719 113.285156 204.363281 113.15625 204.226562 113.015625 Z M 183.402344 99.984375 L 183.402344 72.308594 L 203.011719 72.308594 L 203.011719 99.984375 L 196.164062 93.136719 C 194.53125 91.503906 191.878906 91.503906 190.25 93.136719 Z M 183.402344 99.984375 " fill-opacity="1" fill-rule="evenodd"/></g></svg>