<svg xmlns="http://www.w3.org/2000/svg" xmlns:xlink="http://www.w3.org/1999/xlink" width="2400" zoomAndPan="magnify" viewBox="0 0 1800 449.999984" height="600" preserveAspectRatio="xMidYMid meet" version="1.0"><defs><g/><clipPath id="602e4ce0fb"><rect x="0" width="1271" y="0" height="289"/></clipPath><clipPath id="bc71791c92"><path d="M 53 199.789062 L 452 199.789062 L 452 332 L 53 332 Z M 53 199.789062 " clip-rule="nonzero"/></clipPath><clipPath id="486cbb1dd0"><path d="M 146.722656 54.058594 L 358.222656 54.058594 L 358.222656 241.558594 L 146.722656 241.558594 Z M 146.722656 54.058594 " clip-rule="nonzero"/></clipPath></defs><g transform="matrix(1, 0, 0, 1, 471, 84)"><g clip-path="url(#602e4ce0fb)"><g fill="#ffffff" fill-opacity="1"><g transform="translate(1.028368, 225.898859)"><g><path d="M 113.484375 -182.21875 C 96.867188 -182.21875 83.65625 -175.710938 73.84375 -162.703125 C 64.039062 -149.703125 59.140625 -131.191406 59.140625 -107.171875 C 59.140625 -84.554688 63.789062 -66.59375 73.09375 -53.28125 C 82.40625 -39.976562 95.566406 -33.328125 112.578125 -33.328125 C 125.179688 -33.328125 135.585938 -36.773438 143.796875 -43.671875 C 152.003906 -50.578125 157.507812 -60.632812 160.3125 -73.84375 L 205.34375 -73.84375 C 200.332031 -48.226562 189.671875 -28.566406 173.359375 -14.859375 C 157.054688 -1.148438 136.492188 5.703125 111.671875 5.703125 C 91.660156 5.703125 74.25 1.148438 59.4375 -7.953125 C 44.625 -17.054688 33.210938 -30.113281 25.203125 -47.125 C 17.203125 -64.144531 13.203125 -84.257812 13.203125 -107.46875 C 13.203125 -130.6875 17.351562 -150.847656 25.65625 -167.953125 C 33.96875 -185.066406 45.628906 -198.226562 60.640625 -207.4375 C 75.648438 -216.644531 92.960938 -221.25 112.578125 -221.25 C 129.585938 -221.25 144.894531 -217.945312 158.5 -211.34375 C 172.113281 -204.738281 182.972656 -195.679688 191.078125 -184.171875 C 199.179688 -172.660156 203.9375 -159.601562 205.34375 -145 L 160.3125 -145 C 154.507812 -169.8125 138.898438 -182.21875 113.484375 -182.21875 Z M 113.484375 -182.21875 "/></g></g></g><g fill="#ffffff" fill-opacity="1"><g transform="translate(217.77285, 225.898859)"><g><path d="M 102.375 -121.875 L 145 -215.546875 L 196.03125 -215.546875 L 123.984375 -80.75 L 123.984375 0 L 78.953125 0 L 78.953125 -81.359375 L 4.5 -215.546875 L 57.640625 -215.546875 L 102.0625 -121.875 Z M 102.375 -121.875 "/></g></g></g><g fill="#ffffff" fill-opacity="1"><g transform="translate(418.006343, 225.898859)"><g><path d="M 188.234375 -146.796875 C 188.234375 -134.191406 185.53125 -122.632812 180.125 -112.125 C 174.71875 -101.613281 166.960938 -93.253906 156.859375 -87.046875 C 146.753906 -80.847656 134.894531 -77.75 121.28125 -77.75 L 67.84375 -77.75 L 67.84375 0 L 22.8125 0 L 22.8125 -215.546875 L 121.28125 -215.546875 C 142.09375 -215.546875 158.453125 -209.34375 170.359375 -196.9375 C 182.273438 -184.53125 188.234375 -167.816406 188.234375 -146.796875 Z M 143.203125 -148.59375 C 143.203125 -159.207031 140.148438 -166.816406 134.046875 -171.421875 C 127.941406 -176.023438 118.285156 -178.328125 105.078125 -178.328125 L 67.84375 -178.328125 L 67.84375 -114.984375 L 110.78125 -114.984375 C 132.394531 -114.984375 143.203125 -126.1875 143.203125 -148.59375 Z M 143.203125 -148.59375 "/></g></g></g><g fill="#ffffff" fill-opacity="1"><g transform="translate(618.239812, 225.898859)"><g><path d="M 150.40625 -133.890625 L 150.40625 -215.546875 L 195.4375 -215.546875 L 195.4375 0 L 150.40625 0 L 150.40625 -96.671875 L 66.34375 -96.671875 L 66.34375 0 L 21.3125 0 L 21.3125 -215.546875 L 66.34375 -215.546875 L 66.34375 -133.890625 Z M 150.40625 -133.890625 "/></g></g></g><g fill="#ffffff" fill-opacity="1"><g transform="translate(834.984305, 225.898859)"><g><path d="M 199.640625 -154.609375 C 199.640625 -142.398438 196.734375 -131.691406 190.921875 -122.484375 C 185.117188 -113.273438 176.914062 -106.867188 166.3125 -103.265625 L 173.515625 -99.671875 C 181.722656 -95.265625 187.125 -89.054688 189.71875 -81.046875 C 192.320312 -73.046875 193.625 -63.039062 193.625 -51.03125 L 193.625 -30.921875 C 193.625 -15.710938 196.828125 -7.304688 203.234375 -5.703125 L 203.234375 0 L 153.40625 0 C 152.207031 -3.601562 151.15625 -8.304688 150.25 -14.109375 C 149.351562 -19.910156 148.90625 -25.414062 148.90625 -30.625 L 148.59375 -54.03125 C 148.59375 -63.238281 146.992188 -69.992188 143.796875 -74.296875 C 140.597656 -78.597656 136.59375 -81.347656 131.78125 -82.546875 C 126.976562 -83.753906 120.773438 -84.359375 113.171875 -84.359375 L 66.9375 -84.359375 L 66.9375 0 L 22.8125 0 L 22.8125 -215.546875 L 134.1875 -215.546875 C 147.59375 -215.546875 159.25 -212.742188 169.15625 -207.140625 C 179.070312 -201.535156 186.628906 -194.128906 191.828125 -184.921875 C 197.035156 -175.710938 199.640625 -165.609375 199.640625 -154.609375 Z M 154.609375 -150.09375 C 154.609375 -158.707031 151.851562 -165.566406 146.34375 -170.671875 C 140.84375 -175.773438 133.488281 -178.328125 124.28125 -178.328125 L 66.9375 -178.328125 L 66.9375 -120.6875 L 120.984375 -120.6875 C 132.191406 -120.6875 140.597656 -122.9375 146.203125 -127.4375 C 151.804688 -131.9375 154.609375 -139.488281 154.609375 -150.09375 Z M 154.609375 -150.09375 "/></g></g></g><g fill="#ffffff" fill-opacity="1"><g transform="translate(1051.728799, 225.898859)"><g><path d="M 161.8125 0 L 148 -44.4375 L 68.453125 -44.4375 L 53.4375 0 L 6 0 L 82.859375 -215.546875 L 134.796875 -215.546875 L 210.75 0 Z M 135.390625 -81.65625 L 108.671875 -166.90625 L 108.078125 -166.90625 L 80.453125 -81.65625 Z M 135.390625 -81.65625 "/></g></g></g></g></g><g clip-path="url(#bc71791c92)"><path fill="#ffffff" d="M 395.519531 218.398438 L 109.496094 218.398438 C 93.980469 218.398438 79.871094 224.746094 69.644531 234.980469 C 59.414062 245.214844 53.058594 259.320312 53.058594 274.835938 C 53.058594 290.351562 59.410156 304.464844 69.644531 314.691406 C 79.875 324.917969 93.980469 331.273438 109.496094 331.273438 L 395.523438 331.273438 C 411.042969 331.273438 425.152344 324.925781 435.378906 314.691406 C 445.609375 304.460938 451.964844 290.351562 451.964844 274.835938 C 451.964844 259.320312 445.613281 245.210938 435.378906 234.980469 C 425.152344 224.75 411.039062 218.398438 395.523438 218.398438 Z M 395.628906 240.535156 C 405.03125 240.535156 413.574219 244.382812 419.769531 250.582031 C 425.96875 256.78125 429.816406 265.328125 429.816406 274.722656 L 429.816406 274.945312 C 429.816406 284.34375 425.96875 292.890625 419.769531 299.085938 C 413.570312 305.285156 405.023438 309.132812 395.628906 309.132812 L 109.382812 309.132812 C 99.984375 309.132812 91.4375 305.285156 85.242188 299.085938 C 79.042969 292.886719 75.195312 284.339844 75.195312 274.945312 L 75.195312 274.722656 C 75.195312 265.324219 79.046875 256.777344 85.242188 250.582031 C 91.441406 244.386719 99.988281 240.535156 109.382812 240.535156 Z M 109.386719 230.964844 L 395.628906 230.964844 C 407.671875 230.964844 418.613281 235.882812 426.542969 243.816406 C 434.46875 251.746094 439.394531 262.6875 439.394531 274.726562 L 439.394531 274.949219 C 439.394531 286.992188 434.46875 297.933594 426.542969 305.859375 C 418.613281 313.789062 407.671875 318.714844 395.628906 318.714844 L 109.382812 318.714844 C 97.34375 318.714844 86.402344 313.792969 78.472656 305.859375 C 70.542969 297.933594 65.621094 286.992188 65.621094 274.949219 L 65.621094 274.726562 C 65.621094 262.6875 70.542969 251.742188 78.472656 243.816406 C 86.402344 235.886719 97.34375 230.964844 109.382812 230.964844 Z M 395.742188 -18.101562 C 394.070312 -18.789062 392.378906 -19.386719 390.671875 -19.898438 C 388.910156 -20.304688 387.457031 -21.6875 387.058594 -23.566406 L 384.507812 -35.382812 L 365.0625 -35.144531 L 362.910156 -23.808594 C 362.660156 -22.007812 361.394531 -20.429688 359.539062 -19.878906 C 357.71875 -19.335938 355.9375 -18.695312 354.195312 -17.96875 C 352.5 -17.261719 350.875 -16.484375 349.332031 -15.652344 C 347.816406 -14.707031 345.828125 -14.65625 344.222656 -15.6875 L 334.042969 -22.253906 L 320.464844 -8.332031 L 327.042969 1.332031 C 328.0625 2.765625 328.242188 4.707031 327.355469 6.359375 C 326.433594 8.0625 325.621094 9.777344 324.914062 11.488281 C 324.230469 13.15625 323.628906 14.851562 323.117188 16.558594 C 322.714844 18.316406 321.332031 19.769531 319.453125 20.167969 L 307.632812 22.71875 L 307.875 42.167969 L 319.207031 44.316406 C 321.011719 44.566406 322.589844 45.835938 323.136719 47.691406 C 323.683594 49.507812 324.316406 51.292969 325.042969 53.03125 C 325.75 54.730469 326.527344 56.355469 327.363281 57.898438 C 328.308594 59.414062 328.355469 61.402344 327.324219 63.007812 L 320.753906 73.191406 L 334.679688 86.769531 L 344.339844 80.195312 C 345.773438 79.179688 347.71875 78.996094 349.371094 79.886719 C 351.070312 80.808594 352.785156 81.621094 354.496094 82.324219 C 356.167969 83.007812 357.859375 83.605469 359.566406 84.121094 C 361.328125 84.523438 362.78125 85.910156 363.179688 87.789062 L 365.726562 99.605469 L 385.175781 99.363281 L 387.328125 88.03125 C 387.578125 86.230469 388.84375 84.648438 390.699219 84.101562 C 392.519531 83.554688 394.300781 82.921875 396.039062 82.195312 C 397.738281 81.488281 399.363281 80.710938 400.90625 79.875 C 402.421875 78.933594 404.410156 78.882812 406.015625 79.910156 L 416.199219 86.480469 L 429.777344 72.554688 L 423.203125 62.894531 C 422.1875 61.460938 422.003906 59.515625 422.894531 57.867188 C 423.816406 56.164062 424.628906 54.449219 425.332031 52.738281 C 426.015625 51.066406 426.617188 49.375 427.128906 47.667969 C 427.535156 45.910156 428.917969 44.457031 430.796875 44.054688 L 442.613281 41.507812 L 442.375 22.058594 L 431.039062 19.90625 C 429.238281 19.65625 427.660156 18.390625 427.109375 16.535156 C 426.566406 14.714844 425.929688 12.933594 425.203125 11.195312 C 424.496094 9.496094 423.71875 7.871094 422.886719 6.328125 C 421.941406 4.8125 421.890625 2.824219 422.921875 1.21875 L 429.492188 -8.964844 L 415.570312 -22.542969 L 405.90625 -15.96875 C 404.472656 -14.953125 402.53125 -14.769531 400.878906 -15.660156 C 399.175781 -16.582031 397.460938 -17.394531 395.75 -18.097656 Z M 352.503906 10.054688 C 358.152344 4.269531 366.003906 0.632812 374.734375 0.523438 C 383.457031 0.414062 391.394531 3.851562 397.175781 9.492188 C 402.964844 15.140625 406.597656 22.992188 406.707031 31.722656 C 406.816406 40.445312 403.378906 48.382812 397.738281 54.164062 C 392.09375 59.953125 384.238281 63.585938 375.507812 63.695312 C 366.789062 63.804688 358.847656 60.367188 353.066406 54.726562 C 347.28125 49.082031 343.644531 41.226562 343.535156 32.496094 C 343.425781 23.777344 346.863281 15.835938 352.503906 10.054688 Z M 301.191406 173.277344 L 347.125 173.277344 C 349.773438 173.277344 351.914062 175.417969 351.914062 178.0625 L 351.914062 187.535156 L 389.90625 159.039062 L 351.914062 130.542969 L 351.914062 140.011719 C 351.914062 142.660156 349.773438 144.800781 347.125 144.800781 L 301.191406 144.800781 Z M 122.617188 264.425781 C 125.28125 267.089844 126.929688 270.773438 126.929688 274.84375 C 126.929688 278.914062 125.28125 282.589844 122.617188 285.257812 C 119.953125 287.921875 116.273438 289.566406 112.203125 289.566406 C 108.128906 289.566406 104.453125 287.921875 101.785156 285.257812 C 99.117188 282.59375 97.476562 278.914062 97.476562 274.84375 C 97.476562 270.769531 99.121094 267.09375 101.785156 264.425781 C 104.449219 261.757812 108.132812 260.117188 112.203125 260.117188 C 116.273438 260.117188 119.949219 261.761719 122.617188 264.425781 Z M 112.203125 250.539062 C 118.910156 250.539062 124.988281 253.257812 129.386719 257.65625 C 133.785156 262.054688 136.5 268.128906 136.5 274.839844 C 136.5 281.546875 133.78125 287.625 129.386719 292.023438 C 124.988281 296.421875 118.910156 299.140625 112.203125 299.140625 C 105.496094 299.140625 99.417969 296.421875 95.019531 292.023438 C 90.621094 287.625 87.902344 281.546875 87.902344 274.839844 C 87.902344 268.132812 90.621094 262.054688 95.019531 257.65625 C 99.417969 253.257812 105.492188 250.539062 112.203125 250.539062 Z M 193.265625 264.425781 C 195.929688 267.089844 197.578125 270.773438 197.578125 274.84375 C 197.578125 278.914062 195.929688 282.589844 193.265625 285.257812 C 190.601562 287.921875 186.921875 289.566406 182.851562 289.566406 C 178.777344 289.566406 175.101562 287.921875 172.433594 285.257812 C 169.765625 282.59375 168.125 278.914062 168.125 274.84375 C 168.125 270.769531 169.773438 267.09375 172.433594 264.425781 C 175.097656 261.757812 178.78125 260.117188 182.851562 260.117188 C 186.921875 260.117188 190.597656 261.761719 193.265625 264.425781 Z M 182.851562 250.539062 C 189.558594 250.539062 195.636719 253.257812 200.035156 257.65625 C 204.433594 262.054688 207.148438 268.128906 207.148438 274.839844 C 207.148438 281.546875 204.433594 287.625 200.035156 292.023438 C 195.636719 296.421875 189.558594 299.140625 182.851562 299.140625 C 176.144531 299.140625 170.066406 296.421875 165.667969 292.023438 C 161.269531 287.625 158.550781 281.546875 158.550781 274.839844 C 158.550781 268.132812 161.269531 262.054688 165.667969 257.65625 C 170.066406 253.257812 176.140625 250.539062 182.851562 250.539062 Z M 263.914062 264.425781 C 266.578125 267.089844 268.226562 270.773438 268.226562 274.84375 C 268.226562 278.914062 266.578125 282.589844 263.914062 285.257812 C 261.25 287.925781 257.570312 289.566406 253.5 289.566406 C 249.425781 289.566406 245.753906 287.921875 243.082031 285.257812 C 240.421875 282.59375 238.773438 278.914062 238.773438 274.84375 C 238.773438 270.769531 240.421875 267.09375 243.082031 264.425781 C 245.746094 261.761719 249.429688 260.117188 253.5 260.117188 C 257.570312 260.117188 261.246094 261.761719 263.914062 264.425781 Z M 253.5 250.539062 C 260.207031 250.539062 266.285156 253.257812 270.683594 257.65625 C 275.082031 262.054688 277.800781 268.128906 277.800781 274.839844 C 277.800781 281.546875 275.082031 287.625 270.683594 292.023438 C 266.285156 296.421875 260.207031 299.140625 253.5 299.140625 C 246.792969 299.140625 240.714844 296.421875 236.316406 292.023438 C 231.917969 287.625 229.199219 281.546875 229.199219 274.839844 C 229.199219 268.132812 231.917969 262.054688 236.316406 257.65625 C 240.714844 253.257812 246.789062 250.539062 253.5 250.539062 Z M 334.5625 264.425781 C 337.226562 267.089844 338.875 270.773438 338.875 274.84375 C 338.875 278.914062 337.226562 282.589844 334.5625 285.257812 C 331.898438 287.925781 328.21875 289.566406 324.148438 289.566406 C 320.078125 289.566406 316.402344 287.921875 313.734375 285.257812 C 311.066406 282.59375 309.421875 278.914062 309.421875 274.84375 C 309.421875 270.769531 311.070312 267.09375 313.734375 264.425781 C 316.394531 261.757812 320.078125 260.117188 324.148438 260.117188 C 328.21875 260.117188 331.894531 261.761719 334.5625 264.425781 Z M 324.148438 250.539062 C 330.855469 250.539062 336.933594 253.257812 341.332031 257.65625 C 345.730469 262.054688 348.449219 268.128906 348.449219 274.839844 C 348.449219 281.546875 345.730469 287.625 341.332031 292.023438 C 336.933594 296.421875 330.855469 299.140625 324.148438 299.140625 C 317.441406 299.140625 311.363281 296.421875 306.964844 292.023438 C 302.566406 287.625 299.847656 281.546875 299.847656 274.839844 C 299.847656 268.132812 302.566406 262.054688 306.964844 257.65625 C 311.363281 253.257812 317.4375 250.539062 324.148438 250.539062 Z M 174.167969 161.191406 C 176.8125 161.191406 178.957031 163.335938 178.957031 165.980469 C 178.957031 168.625 176.8125 170.769531 174.167969 170.769531 L 139.921875 170.769531 C 137.273438 170.769531 135.132812 168.625 135.132812 165.980469 C 135.132812 163.335938 137.273438 161.191406 139.921875 161.191406 Z M 139.921875 149.902344 C 137.273438 149.902344 135.132812 147.757812 135.132812 145.113281 C 135.132812 142.46875 137.273438 140.324219 139.921875 140.324219 L 174.167969 140.324219 C 176.8125 140.324219 178.957031 142.46875 178.957031 145.113281 C 178.957031 147.757812 176.8125 149.902344 174.167969 149.902344 Z M 405.210938 264.425781 C 407.875 267.089844 409.523438 270.769531 409.523438 274.839844 C 409.523438 278.914062 407.875 282.585938 405.210938 285.257812 C 402.546875 287.925781 398.867188 289.566406 394.796875 289.566406 C 390.726562 289.566406 387.050781 287.917969 384.382812 285.257812 C 381.71875 282.59375 380.070312 278.910156 380.070312 274.839844 C 380.070312 270.769531 381.71875 267.09375 384.382812 264.425781 C 387.042969 261.761719 390.726562 260.113281 394.796875 260.113281 C 398.867188 260.113281 402.542969 261.761719 405.210938 264.425781 Z M 394.796875 250.539062 C 401.503906 250.539062 407.582031 253.257812 411.980469 257.65625 C 416.378906 262.050781 419.097656 268.128906 419.097656 274.835938 C 419.097656 281.542969 416.378906 287.621094 411.980469 292.019531 C 407.582031 296.417969 401.503906 299.136719 394.796875 299.136719 C 388.089844 299.136719 382.011719 296.417969 377.613281 292.019531 C 373.214844 287.621094 370.496094 281.546875 370.496094 274.835938 C 370.496094 268.128906 373.214844 262.050781 377.613281 257.65625 C 382.011719 253.257812 388.085938 250.539062 394.796875 250.539062 Z M 206.21875 79.394531 L 193.640625 66.816406 L 181.0625 79.394531 C 180.910156 79.554688 180.742188 79.703125 180.5625 79.839844 C 180.46875 79.910156 180.371094 79.980469 180.273438 80.046875 C 180.171875 80.113281 180.074219 80.171875 179.972656 80.234375 C 179.28125 80.617188 178.488281 80.835938 177.644531 80.835938 C 176.800781 80.835938 176.003906 80.621094 175.316406 80.234375 C 175.210938 80.171875 175.113281 80.113281 175.015625 80.046875 C 174.914062 79.980469 174.820312 79.910156 174.726562 79.839844 C 174.402344 79.589844 174.113281 79.296875 173.863281 78.976562 C 173.789062 78.878906 173.722656 78.785156 173.652344 78.683594 C 173.589844 78.585938 173.527344 78.484375 173.472656 78.378906 C 173.085938 77.691406 172.867188 76.894531 172.867188 76.046875 L 172.867188 32.832031 L 117.710938 32.832031 L 117.710938 184.71875 L 269.601562 184.71875 L 269.601562 32.835938 L 214.445312 32.835938 L 214.445312 76.054688 C 214.445312 76.898438 214.226562 77.695312 213.839844 78.382812 C 213.78125 78.488281 213.722656 78.585938 213.660156 78.6875 C 213.589844 78.792969 213.523438 78.886719 213.449219 78.984375 C 213.199219 79.304688 212.910156 79.597656 212.589844 79.847656 C 212.492188 79.917969 212.398438 79.984375 212.296875 80.054688 C 212.195312 80.121094 212.097656 80.179688 211.996094 80.242188 C 211.308594 80.625 210.511719 80.84375 209.667969 80.84375 C 208.824219 80.84375 208.03125 80.628906 207.339844 80.242188 C 207.234375 80.179688 207.136719 80.121094 207.039062 80.054688 C 206.941406 79.984375 206.84375 79.917969 206.75 79.847656 C 206.570312 79.710938 206.40625 79.558594 206.25 79.402344 Z M 182.425781 64.496094 L 182.425781 32.835938 L 204.859375 32.835938 L 204.859375 64.496094 L 197.027344 56.660156 C 195.15625 54.792969 192.125 54.792969 190.261719 56.660156 Z M 182.425781 64.496094 " fill-opacity="1" fill-rule="evenodd"/></g><g clip-path="url(#486cbb1dd0)"><path fill="#ffffff" d="M 460.921875 257.085938 L 174.898438 257.085938 C 159.382812 257.085938 145.273438 263.4375 135.042969 273.667969 C 124.816406 283.902344 118.460938 298.007812 118.460938 313.523438 C 118.460938 329.042969 124.808594 343.152344 135.042969 353.378906 C 145.277344 363.609375 159.382812 369.964844 174.898438 369.964844 L 460.925781 369.964844 C 476.441406 369.964844 490.554688 363.613281 500.78125 353.378906 C 511.011719 343.148438 517.363281 329.039062 517.363281 313.523438 C 517.363281 298.007812 511.015625 283.898438 500.78125 273.667969 C 490.550781 263.441406 476.441406 257.085938 460.925781 257.085938 Z M 461.03125 279.222656 C 470.429688 279.222656 478.976562 283.074219 485.171875 289.269531 C 491.371094 295.46875 495.21875 304.015625 495.21875 313.410156 L 495.21875 313.632812 C 495.21875 323.035156 491.371094 331.578125 485.171875 337.773438 C 478.972656 343.972656 470.425781 347.820312 461.03125 347.820312 L 174.785156 347.820312 C 165.386719 347.820312 156.839844 343.972656 150.644531 337.773438 C 144.445312 331.574219 140.597656 323.027344 140.597656 313.632812 L 140.597656 313.410156 C 140.597656 304.011719 144.445312 295.464844 150.644531 289.273438 C 156.84375 283.078125 165.390625 279.222656 174.785156 279.222656 Z M 174.789062 269.652344 L 461.03125 269.652344 C 473.070312 269.652344 484.015625 274.570312 491.941406 282.503906 C 499.871094 290.433594 504.796875 301.375 504.796875 313.414062 L 504.796875 313.636719 C 504.796875 325.679688 499.871094 336.621094 491.941406 344.550781 C 484.011719 352.476562 473.070312 357.402344 461.03125 357.402344 L 174.785156 357.402344 C 162.746094 357.402344 151.800781 352.480469 143.875 344.550781 C 135.945312 336.621094 131.019531 325.679688 131.019531 313.636719 L 131.019531 313.414062 C 131.019531 301.375 135.945312 290.433594 143.875 282.503906 C 151.804688 274.574219 162.746094 269.652344 174.785156 269.652344 Z M 461.140625 20.585938 C 459.472656 19.902344 457.777344 19.300781 456.074219 18.789062 C 454.3125 18.386719 452.859375 17 452.460938 15.121094 L 449.910156 3.304688 L 430.460938 3.546875 L 428.3125 14.878906 C 428.0625 16.679688 426.796875 18.261719 424.941406 18.808594 C 423.121094 19.351562 421.335938 19.992188 419.597656 20.71875 C 417.902344 21.425781 416.277344 22.203125 414.734375 23.039062 C 413.21875 23.980469 411.230469 24.03125 409.621094 23 L 399.445312 16.433594 L 385.867188 30.359375 L 392.445312 40.019531 C 393.460938 41.453125 393.644531 43.398438 392.753906 45.050781 C 391.832031 46.75 391.019531 48.464844 390.316406 50.175781 C 389.632812 51.847656 389.027344 53.539062 388.519531 55.246094 C 388.117188 57.007812 386.730469 58.457031 384.851562 58.859375 L 373.035156 61.40625 L 373.277344 80.855469 L 384.609375 83.007812 C 386.410156 83.257812 387.988281 84.523438 388.539062 86.378906 C 389.082031 88.199219 389.71875 89.980469 390.445312 91.71875 C 391.152344 93.417969 391.929688 95.042969 392.765625 96.585938 C 393.707031 98.101562 393.757812 100.089844 392.726562 101.695312 L 386.15625 111.878906 L 400.078125 125.457031 L 409.742188 118.882812 C 411.175781 117.867188 413.117188 117.683594 414.769531 118.574219 C 416.472656 119.496094 418.1875 120.308594 419.898438 121.011719 C 421.566406 121.695312 423.261719 122.296875 424.96875 122.808594 C 426.726562 123.210938 428.179688 124.597656 428.578125 126.476562 L 431.128906 138.292969 L 450.578125 138.054688 L 452.726562 126.71875 C 452.976562 124.917969 454.242188 123.339844 456.097656 122.789062 C 457.917969 122.246094 459.703125 121.609375 461.441406 120.882812 C 463.140625 120.175781 464.765625 119.398438 466.304688 118.566406 C 467.820312 117.621094 469.8125 117.570312 471.417969 118.597656 L 481.601562 125.167969 L 495.179688 111.246094 L 488.605469 101.582031 C 487.585938 100.148438 487.40625 98.207031 488.296875 96.554688 C 489.21875 94.851562 490.03125 93.136719 490.734375 91.425781 C 491.417969 89.757812 492.015625 88.0625 492.53125 86.355469 C 492.933594 84.601562 494.320312 83.144531 496.199219 82.746094 L 508.015625 80.195312 L 507.773438 60.746094 L 496.441406 58.597656 C 494.640625 58.347656 493.058594 57.082031 492.511719 55.226562 C 491.964844 53.40625 491.332031 51.621094 490.605469 49.882812 C 489.898438 48.183594 489.121094 46.558594 488.285156 45.019531 C 487.34375 43.5 487.292969 41.511719 488.324219 39.90625 L 494.894531 29.722656 L 480.96875 16.144531 L 471.308594 22.71875 C 469.875 23.738281 467.929688 23.917969 466.28125 23.027344 C 464.578125 22.105469 462.863281 21.292969 461.152344 20.589844 Z M 417.90625 48.742188 C 423.550781 42.957031 431.40625 39.324219 440.132812 39.214844 C 448.855469 39.105469 456.796875 42.539062 462.578125 48.179688 C 468.363281 53.828125 472 61.683594 472.109375 70.410156 C 472.21875 79.132812 468.78125 87.070312 463.140625 92.851562 C 457.492188 98.640625 449.636719 102.273438 440.910156 102.382812 C 432.1875 102.492188 424.25 99.054688 418.46875 93.414062 C 412.679688 87.769531 409.046875 79.914062 408.9375 71.1875 C 408.828125 62.464844 412.265625 54.527344 417.90625 48.742188 Z M 366.589844 211.964844 L 412.527344 211.964844 C 415.171875 211.964844 417.316406 214.105469 417.316406 216.753906 L 417.316406 226.222656 L 455.304688 197.726562 L 417.316406 169.230469 L 417.316406 178.703125 C 417.316406 181.347656 415.171875 183.488281 412.527344 183.488281 L 366.589844 183.488281 Z M 188.019531 303.113281 C 190.683594 305.777344 192.328125 309.460938 192.328125 313.53125 C 192.328125 317.601562 190.683594 321.277344 188.019531 323.945312 C 185.355469 326.609375 181.671875 328.257812 177.601562 328.257812 C 173.53125 328.257812 169.855469 326.609375 167.1875 323.945312 C 164.519531 321.28125 162.875 317.601562 162.875 313.53125 C 162.875 309.457031 164.523438 305.785156 167.1875 303.113281 C 169.851562 300.445312 173.53125 298.804688 177.601562 298.804688 C 181.675781 298.804688 185.351562 300.453125 188.019531 303.113281 Z M 177.601562 289.226562 C 184.308594 289.226562 190.386719 291.945312 194.785156 296.34375 C 199.183594 300.742188 201.902344 306.820312 201.902344 313.527344 C 201.902344 320.234375 199.183594 326.3125 194.785156 330.710938 C 190.386719 335.109375 184.3125 337.828125 177.601562 337.828125 C 170.894531 337.828125 164.816406 335.109375 160.417969 330.710938 C 156.019531 326.3125 153.304688 320.238281 153.304688 313.527344 C 153.304688 306.820312 156.023438 300.742188 160.417969 296.34375 C 164.816406 291.945312 170.894531 289.226562 177.601562 289.226562 Z M 258.667969 303.113281 C 261.332031 305.777344 262.976562 309.460938 262.976562 313.53125 C 262.976562 317.601562 261.332031 321.277344 258.667969 323.945312 C 256.003906 326.609375 252.320312 328.257812 248.25 328.257812 C 244.179688 328.257812 240.503906 326.609375 237.835938 323.945312 C 235.167969 321.28125 233.527344 317.601562 233.527344 313.53125 C 233.527344 309.457031 235.171875 305.785156 237.835938 303.113281 C 240.5 300.445312 244.179688 298.804688 248.25 298.804688 C 252.324219 298.804688 256 300.453125 258.667969 303.113281 Z M 248.25 289.226562 C 254.957031 289.226562 261.035156 291.945312 265.433594 296.34375 C 269.832031 300.742188 272.550781 306.820312 272.550781 313.527344 C 272.550781 320.234375 269.832031 326.3125 265.433594 330.710938 C 261.035156 335.109375 254.960938 337.828125 248.25 337.828125 C 241.542969 337.828125 235.464844 335.109375 231.066406 330.710938 C 226.671875 326.3125 223.953125 320.238281 223.953125 313.527344 C 223.953125 306.820312 226.671875 300.742188 231.066406 296.34375 C 235.464844 291.945312 241.542969 289.226562 248.25 289.226562 Z M 329.316406 303.113281 C 331.980469 305.777344 333.625 309.460938 333.625 313.53125 C 333.625 317.601562 331.980469 321.277344 329.316406 323.945312 C 326.652344 326.613281 322.96875 328.257812 318.898438 328.257812 C 314.828125 328.257812 311.152344 326.609375 308.484375 323.945312 C 305.820312 321.28125 304.175781 317.601562 304.175781 313.53125 C 304.175781 309.457031 305.820312 305.785156 308.484375 303.113281 C 311.148438 300.453125 314.828125 298.804688 318.898438 298.804688 C 322.972656 298.804688 326.648438 300.453125 329.316406 303.113281 Z M 318.898438 289.226562 C 325.605469 289.226562 331.683594 291.945312 336.082031 296.34375 C 340.480469 300.742188 343.199219 306.820312 343.199219 313.527344 C 343.199219 320.234375 340.480469 326.3125 336.082031 330.710938 C 331.683594 335.109375 325.609375 337.828125 318.898438 337.828125 C 312.191406 337.828125 306.113281 335.109375 301.71875 330.710938 C 297.320312 326.3125 294.601562 320.238281 294.601562 313.527344 C 294.601562 306.820312 297.320312 300.742188 301.71875 296.34375 C 306.113281 291.945312 312.191406 289.226562 318.898438 289.226562 Z M 399.964844 303.113281 C 402.628906 305.777344 404.273438 309.460938 404.273438 313.53125 C 404.273438 317.601562 402.628906 321.277344 399.964844 323.945312 C 397.300781 326.613281 393.621094 328.257812 389.550781 328.257812 C 385.476562 328.257812 381.800781 326.609375 379.132812 323.945312 C 376.464844 321.28125 374.824219 317.601562 374.824219 313.53125 C 374.824219 309.457031 376.46875 305.785156 379.132812 303.113281 C 381.796875 300.445312 385.480469 298.804688 389.550781 298.804688 C 393.621094 298.804688 397.296875 300.453125 399.964844 303.113281 Z M 389.550781 289.226562 C 396.257812 289.226562 402.335938 291.945312 406.730469 296.34375 C 411.128906 300.742188 413.847656 306.820312 413.847656 313.527344 C 413.847656 320.234375 411.128906 326.3125 406.730469 330.710938 C 402.335938 335.109375 396.257812 337.828125 389.550781 337.828125 C 382.84375 337.828125 376.765625 335.109375 372.367188 330.710938 C 367.96875 326.3125 365.25 320.238281 365.25 313.527344 C 365.25 306.820312 367.96875 300.742188 372.367188 296.34375 C 376.765625 291.945312 382.839844 289.226562 389.550781 289.226562 Z M 239.570312 199.882812 C 242.214844 199.882812 244.355469 202.023438 244.355469 204.667969 C 244.355469 207.316406 242.214844 209.457031 239.570312 209.457031 L 205.320312 209.457031 C 202.675781 209.457031 200.535156 207.316406 200.535156 204.667969 C 200.535156 202.023438 202.675781 199.882812 205.320312 199.882812 Z M 205.320312 188.589844 C 202.675781 188.589844 200.535156 186.449219 200.535156 183.800781 C 200.535156 181.15625 202.675781 179.015625 205.320312 179.015625 L 239.570312 179.015625 C 242.214844 179.015625 244.355469 181.15625 244.355469 183.800781 C 244.355469 186.449219 242.214844 188.589844 239.570312 188.589844 Z M 470.613281 303.113281 C 473.277344 305.777344 474.921875 309.457031 474.921875 313.527344 C 474.921875 317.601562 473.277344 321.277344 470.613281 323.945312 C 467.949219 326.613281 464.269531 328.253906 460.199219 328.253906 C 456.125 328.253906 452.449219 326.609375 449.78125 323.945312 C 447.117188 321.28125 445.472656 317.597656 445.472656 313.527344 C 445.472656 309.457031 447.117188 305.78125 449.78125 303.113281 C 452.445312 300.449219 456.128906 298.804688 460.199219 298.804688 C 464.269531 298.804688 467.945312 300.449219 470.613281 303.113281 Z M 460.199219 289.226562 C 466.90625 289.226562 472.984375 291.945312 477.378906 296.34375 C 481.777344 300.742188 484.496094 306.816406 484.496094 313.527344 C 484.496094 320.234375 481.777344 326.3125 477.378906 330.710938 C 472.984375 335.109375 466.90625 337.824219 460.199219 337.824219 C 453.492188 337.824219 447.414062 335.105469 443.015625 330.710938 C 438.617188 326.3125 435.898438 320.234375 435.898438 313.527344 C 435.898438 306.820312 438.617188 300.742188 443.015625 296.34375 C 447.414062 291.945312 453.488281 289.226562 460.199219 289.226562 Z M 271.621094 118.082031 L 259.039062 105.503906 L 246.464844 118.082031 C 246.308594 118.242188 246.140625 118.390625 245.964844 118.527344 C 245.867188 118.597656 245.773438 118.667969 245.671875 118.734375 C 245.574219 118.804688 245.472656 118.863281 245.375 118.921875 C 244.683594 119.308594 243.886719 119.527344 243.042969 119.527344 C 242.203125 119.527344 241.40625 119.308594 240.714844 118.921875 C 240.613281 118.863281 240.511719 118.804688 240.417969 118.734375 C 240.316406 118.667969 240.222656 118.597656 240.125 118.527344 C 239.804688 118.277344 239.511719 117.984375 239.261719 117.664062 C 239.191406 117.566406 239.121094 117.472656 239.054688 117.371094 C 238.992188 117.273438 238.925781 117.171875 238.871094 117.070312 C 238.488281 116.378906 238.269531 115.582031 238.269531 114.734375 L 238.269531 71.519531 L 183.113281 71.519531 L 183.113281 223.410156 L 335 223.410156 L 335.003906 71.527344 L 279.847656 71.527344 L 279.847656 114.742188 C 279.847656 115.585938 279.628906 116.382812 279.242188 117.070312 C 279.183594 117.175781 279.125 117.277344 279.058594 117.375 C 278.992188 117.480469 278.925781 117.574219 278.851562 117.671875 C 278.601562 117.992188 278.3125 118.285156 277.988281 118.535156 C 277.894531 118.605469 277.796875 118.675781 277.699219 118.742188 C 277.597656 118.808594 277.5 118.871094 277.398438 118.929688 C 276.707031 119.3125 275.914062 119.53125 275.070312 119.53125 C 274.226562 119.53125 273.429688 119.316406 272.742188 118.929688 C 272.636719 118.871094 272.539062 118.808594 272.441406 118.742188 C 272.339844 118.675781 272.246094 118.605469 272.152344 118.535156 C 271.972656 118.398438 271.804688 118.246094 271.652344 118.089844 Z M 247.828125 103.183594 L 247.828125 71.523438 L 270.261719 71.523438 L 270.261719 103.183594 L 262.429688 95.351562 C 260.558594 93.480469 257.527344 93.480469 255.660156 95.351562 Z M 247.828125 103.183594 " fill-opacity="1" fill-rule="evenodd"/></g></svg>