<svg xmlns="http://www.w3.org/2000/svg" xmlns:xlink="http://www.w3.org/1999/xlink" width="2400" zoomAndPan="magnify" viewBox="0 0 1800 449.999984" height="600" preserveAspectRatio="xMidYMid meet" version="1.0"><defs><g/><clipPath id="b7e45fb9e4"><rect x="0" width="1271" y="0" height="289"/></clipPath><clipPath id="105750bdac"><path d="M 53 199.789062 L 452 199.789062 L 452 332 L 53 332 Z M 53 199.789062 " clip-rule="nonzero"/></clipPath><clipPath id="a38c7f1198"><path d="M 146.722656 54.058594 L 358.222656 54.058594 L 358.222656 241.558594 L 146.722656 241.558594 Z M 146.722656 54.058594 " clip-rule="nonzero"/></clipPath></defs><g transform="matrix(1, 0, 0, 1, 471, 84)"><g clip-path="url(#b7e45fb9e4)"><g fill="#000000" fill-opacity="1"><g transform="translate(1.028368, 225.898859)"><g><path d="M 113.484375 -182.21875 C 96.867188 -182.21875 83.65625 -175.710938 73.84375 -162.703125 C 64.039062 -149.703125 59.140625 -131.191406 59.140625 -107.171875 C 59.140625 -84.554688 63.789062 -66.59375 73.09375 -53.28125 C 82.40625 -39.976562 95.566406 -33.328125 112.578125 -33.328125 C 125.179688 -33.328125 135.585938 -36.773438 143.796875 -43.671875 C 152.003906 -50.578125 157.507812 -60.632812 160.3125 -73.84375 L 205.34375 -73.84375 C 200.332031 -48.226562 189.671875 -28.566406 173.359375 -14.859375 C 157.054688 -1.148438 136.492188 5.703125 111.671875 5.703125 C 91.660156 5.703125 74.25 1.148438 59.4375 -7.953125 C 44.625 -17.054688 33.210938 -30.113281 25.203125 -47.125 C 17.203125 -64.144531 13.203125 -84.257812 13.203125 -107.46875 C 13.203125 -130.6875 17.351562 -150.847656 25.65625 -167.953125 C 33.96875 -185.066406 45.628906 -198.226562 60.640625 -207.4375 C 75.648438 -216.644531 92.960938 -221.25 112.578125 -221.25 C 129.585938 -221.25 144.894531 -217.945312 158.5 -211.34375 C 172.113281 -204.738281 182.972656 -195.679688 191.078125 -184.171875 C 199.179688 -172.660156 203.9375 -159.601562 205.34375 -145 L 160.3125 -145 C 154.507812 -169.8125 138.898438 -182.21875 113.484375 -182.21875 Z M 113.484375 -182.21875 "/></g></g></g><g fill="#000000" fill-opacity="1"><g transform="translate(217.77285, 225.898859)"><g><path d="M 102.375 -121.875 L 145 -215.546875 L 196.03125 -215.546875 L 123.984375 -80.75 L 123.984375 0 L 78.953125 0 L 78.953125 -81.359375 L 4.5 -215.546875 L 57.640625 -215.546875 L 102.0625 -121.875 Z M 102.375 -121.875 "/></g></g></g><g fill="#000000" fill-opacity="1"><g transform="translate(418.006343, 225.898859)"><g><path d="M 188.234375 -146.796875 C 188.234375 -134.191406 185.53125 -122.632812 180.125 -112.125 C 174.71875 -101.613281 166.960938 -93.253906 156.859375 -87.046875 C 146.753906 -80.847656 134.894531 -77.75 121.28125 -77.75 L 67.84375 -77.75 L 67.84375 0 L 22.8125 0 L 22.8125 -215.546875 L 121.28125 -215.546875 C 142.09375 -215.546875 158.453125 -209.34375 170.359375 -196.9375 C 182.273438 -184.53125 188.234375 -167.816406 188.234375 -146.796875 Z M 143.203125 -148.59375 C 143.203125 -159.207031 140.148438 -166.816406 134.046875 -171.421875 C 127.941406 -176.023438 118.285156 -178.328125 105.078125 -178.328125 L 67.84375 -178.328125 L 67.84375 -114.984375 L 110.78125 -114.984375 C 132.394531 -114.984375 143.203125 -126.1875 143.203125 -148.59375 Z M 143.203125 -148.59375 "/></g></g></g><g fill="#000000" fill-opacity="1"><g transform="translate(618.239812, 225.898859)"><g><path d="M 150.40625 -133.890625 L 150.40625 -215.546875 L 195.4375 -215.546875 L 195.4375 0 L 150.40625 0 L 150.40625 -96.671875 L 66.34375 -96.671875 L 66.34375 0 L 21.3125 0 L 21.3125 -215.546875 L 66.34375 -215.546875 L 66.34375 -133.890625 Z M 150.40625 -133.890625 "/></g></g></g><g fill="#000000" fill-opacity="1"><g transform="translate(834.984305, 225.898859)"><g><path d="M 199.640625 -154.609375 C 199.640625 -142.398438 196.734375 -131.691406 190.921875 -122.484375 C 185.117188 -113.273438 176.914062 -106.867188 166.3125 -103.265625 L 173.515625 -99.671875 C 181.722656 -95.265625 187.125 -89.054688 189.71875 -81.046875 C 192.320312 -73.046875 193.625 -63.039062 193.625 -51.03125 L 193.625 -30.921875 C 193.625 -15.710938 196.828125 -7.304688 203.234375 -5.703125 L 203.234375 0 L 153.40625 0 C 152.207031 -3.601562 151.15625 -8.304688 150.25 -14.109375 C 149.351562 -19.910156 148.90625 -25.414062 148.90625 -30.625 L 148.59375 -54.03125 C 148.59375 -63.238281 146.992188 -69.992188 143.796875 -74.296875 C 140.597656 -78.597656 136.59375 -81.347656 131.78125 -82.546875 C 126.976562 -83.753906 120.773438 -84.359375 113.171875 -84.359375 L 66.9375 -84.359375 L 66.9375 0 L 22.8125 0 L 22.8125 -215.546875 L 134.1875 -215.546875 C 147.59375 -215.546875 159.25 -212.742188 169.15625 -207.140625 C 179.070312 -201.535156 186.628906 -194.128906 191.828125 -184.921875 C 197.035156 -175.710938 199.640625 -165.609375 199.640625 -154.609375 Z M 154.609375 -150.09375 C 154.609375 -158.707031 151.851562 -165.566406 146.34375 -170.671875 C 140.84375 -175.773438 133.488281 -178.328125 124.28125 -178.328125 L 66.9375 -178.328125 L 66.9375 -120.6875 L 120.984375 -120.6875 C 132.191406 -120.6875 140.597656 -122.9375 146.203125 -127.4375 C 151.804688 -131.9375 154.609375 -139.488281 154.609375 -150.09375 Z M 154.609375 -150.09375 "/></g></g></g><g fill="#000000" fill-opacity="1"><g transform="translate(1051.728799, 225.898859)"><g><path d="M 161.8125 0 L 148 -44.4375 L 68.453125 -44.4375 L 53.4375 0 L 6 0 L 82.859375 -215.546875 L 134.796875 -215.546875 L 210.75 0 Z M 135.390625 -81.65625 L 108.671875 -166.90625 L 108.078125 -166.90625 L 80.453125 -81.65625 Z M 135.390625 -81.65625 "/></g></g></g></g></g><g clip-path="url(#105750bdac)"><path fill="#000000" d="M 395.445312 218.277344 L 109.480469 218.277344 C 93.96875 218.277344 79.859375 224.628906 69.632812 234.859375 C 59.40625 245.089844 53.054688 259.191406 53.054688 274.707031 C 53.054688 290.21875 59.402344 304.328125 69.632812 314.550781 C 79.863281 324.777344 93.96875 331.132812 109.480469 331.132812 L 395.449219 331.132812 C 410.960938 331.132812 425.070312 324.785156 435.296875 314.550781 C 445.523438 304.324219 451.875 290.21875 451.875 274.707031 C 451.875 259.191406 445.527344 245.085938 435.296875 234.859375 C 425.070312 224.632812 410.960938 218.277344 395.449219 218.277344 Z M 395.554688 240.414062 C 404.953125 240.414062 413.496094 244.261719 419.6875 250.457031 C 425.886719 256.65625 429.734375 265.199219 429.734375 274.59375 L 429.734375 274.816406 C 429.734375 284.210938 425.886719 292.757812 419.6875 298.949219 C 413.492188 305.148438 404.945312 308.996094 395.554688 308.996094 L 109.367188 308.996094 C 99.96875 308.996094 91.425781 305.148438 85.230469 298.949219 C 79.035156 292.753906 75.1875 284.207031 75.1875 274.816406 L 75.1875 274.59375 C 75.1875 265.195312 79.035156 256.652344 85.230469 250.457031 C 91.429688 244.265625 99.972656 240.414062 109.367188 240.414062 Z M 109.371094 230.84375 L 395.554688 230.84375 C 407.59375 230.84375 418.53125 235.761719 426.457031 243.691406 C 434.386719 251.621094 439.308594 262.558594 439.308594 274.597656 L 439.308594 274.820312 C 439.308594 286.859375 434.386719 297.796875 426.457031 305.722656 C 418.53125 313.652344 407.59375 318.574219 395.554688 318.574219 L 109.367188 318.574219 C 97.328125 318.574219 86.386719 313.65625 78.460938 305.722656 C 70.535156 297.796875 65.613281 286.855469 65.613281 274.820312 L 65.613281 274.597656 C 65.613281 262.558594 70.535156 251.617188 78.460938 243.691406 C 86.390625 235.765625 97.328125 230.84375 109.367188 230.84375 Z M 395.664062 -18.171875 C 393.996094 -18.855469 392.300781 -19.457031 390.597656 -19.96875 C 388.835938 -20.371094 387.382812 -21.757812 386.984375 -23.636719 L 384.433594 -35.449219 L 364.992188 -35.210938 L 362.839844 -23.878906 C 362.589844 -22.078125 361.324219 -20.5 359.46875 -19.949219 C 357.652344 -19.40625 355.867188 -18.765625 354.128906 -18.039062 C 352.433594 -17.332031 350.808594 -16.554688 349.265625 -15.722656 C 347.75 -14.777344 345.761719 -14.726562 344.15625 -15.757812 L 333.980469 -22.324219 L 320.402344 -8.402344 L 326.984375 1.257812 C 328 2.691406 328.179688 4.632812 327.292969 6.285156 C 326.371094 7.988281 325.558594 9.703125 324.855469 11.414062 C 324.167969 13.082031 323.566406 14.773438 323.054688 16.480469 C 322.652344 18.242188 321.269531 19.691406 319.390625 20.089844 L 307.574219 22.640625 L 307.816406 42.085938 L 319.148438 44.234375 C 320.949219 44.484375 322.527344 45.75 323.074219 47.605469 C 323.621094 49.425781 324.257812 51.207031 324.980469 52.945312 C 325.6875 54.644531 326.464844 56.269531 327.300781 57.8125 C 328.246094 59.328125 328.292969 61.3125 327.261719 62.921875 L 320.695312 73.101562 L 334.613281 86.679688 L 344.273438 80.105469 C 345.707031 79.085938 347.652344 78.90625 349.300781 79.796875 C 351.003906 80.71875 352.71875 81.53125 354.429688 82.230469 C 356.097656 82.917969 357.792969 83.515625 359.496094 84.03125 C 361.257812 84.433594 362.710938 85.816406 363.109375 87.695312 L 365.65625 99.511719 L 385.101562 99.269531 L 387.253906 87.941406 C 387.503906 86.136719 388.769531 84.558594 390.625 84.011719 C 392.441406 83.464844 394.226562 82.832031 395.964844 82.105469 C 397.660156 81.398438 399.285156 80.621094 400.828125 79.785156 C 402.34375 78.84375 404.332031 78.792969 405.9375 79.820312 L 416.121094 86.386719 L 429.695312 72.46875 L 423.121094 62.808594 C 422.105469 61.375 421.921875 59.429688 422.8125 57.78125 C 423.734375 56.078125 424.546875 54.363281 425.25 52.652344 C 425.933594 50.984375 426.53125 49.289062 427.046875 47.585938 C 427.449219 45.828125 428.835938 44.371094 430.714844 43.972656 L 442.527344 41.425781 L 442.289062 21.980469 L 430.957031 19.828125 C 429.15625 19.578125 427.574219 18.3125 427.027344 16.460938 C 426.484375 14.640625 425.847656 12.855469 425.121094 11.117188 C 424.414062 9.421875 423.636719 7.796875 422.804688 6.253906 C 421.859375 4.738281 421.808594 2.75 422.839844 1.144531 L 429.410156 -9.039062 L 415.488281 -22.613281 L 405.828125 -16.039062 C 404.394531 -15.023438 402.453125 -14.839844 400.800781 -15.730469 C 399.097656 -16.652344 397.382812 -17.464844 395.675781 -18.167969 Z M 352.4375 9.980469 C 358.082031 4.195312 365.933594 0.558594 374.660156 0.449219 C 383.382812 0.339844 391.320312 3.777344 397.101562 9.417969 C 402.886719 15.0625 406.519531 22.914062 406.628906 31.640625 C 406.738281 40.363281 403.300781 48.296875 397.664062 54.078125 C 392.015625 59.863281 384.164062 63.5 375.4375 63.609375 C 366.71875 63.71875 358.78125 60.28125 353 54.640625 C 347.214844 48.996094 343.582031 41.144531 343.472656 32.417969 C 343.363281 23.695312 346.796875 15.761719 352.4375 9.980469 Z M 301.132812 173.167969 L 347.058594 173.167969 C 349.707031 173.167969 351.847656 175.308594 351.847656 177.953125 L 351.847656 187.421875 L 389.828125 158.933594 L 351.847656 130.441406 L 351.847656 139.910156 C 351.847656 142.554688 349.703125 144.699219 347.058594 144.699219 L 301.132812 144.699219 Z M 122.597656 264.296875 C 125.261719 266.960938 126.90625 270.640625 126.90625 274.710938 C 126.90625 278.78125 125.261719 282.457031 122.597656 285.125 C 119.933594 287.789062 116.253906 289.433594 112.183594 289.433594 C 108.113281 289.433594 104.4375 287.789062 101.769531 285.125 C 99.101562 282.460938 97.460938 278.78125 97.460938 274.710938 C 97.460938 270.640625 99.109375 266.964844 101.769531 264.296875 C 104.433594 261.632812 108.113281 259.988281 112.183594 259.988281 C 116.253906 259.988281 119.929688 261.636719 122.597656 264.296875 Z M 112.183594 250.414062 C 118.890625 250.414062 124.964844 253.132812 129.363281 257.527344 C 133.761719 261.925781 136.476562 268 136.476562 274.707031 C 136.476562 281.414062 133.761719 287.492188 129.363281 291.886719 C 124.964844 296.285156 118.890625 299.003906 112.183594 299.003906 C 105.476562 299.003906 99.402344 296.285156 95.003906 291.886719 C 90.605469 287.492188 87.890625 281.417969 87.890625 274.707031 C 87.890625 268.003906 90.605469 261.925781 95.003906 257.527344 C 99.402344 253.132812 105.476562 250.414062 112.183594 250.414062 Z M 193.230469 264.296875 C 195.894531 266.960938 197.542969 270.640625 197.542969 274.710938 C 197.542969 278.78125 195.894531 282.457031 193.230469 285.125 C 190.566406 287.789062 186.886719 289.433594 182.816406 289.433594 C 178.746094 289.433594 175.074219 287.789062 172.40625 285.125 C 169.738281 282.460938 168.09375 278.78125 168.09375 274.710938 C 168.09375 270.640625 169.742188 266.964844 172.40625 264.296875 C 175.066406 261.632812 178.75 259.988281 182.816406 259.988281 C 186.890625 259.988281 190.5625 261.636719 193.230469 264.296875 Z M 182.816406 250.414062 C 189.523438 250.414062 195.601562 253.132812 199.996094 257.527344 C 204.394531 261.925781 207.113281 268 207.113281 274.707031 C 207.113281 281.414062 204.394531 287.492188 199.996094 291.886719 C 195.601562 296.285156 189.527344 299.003906 182.816406 299.003906 C 176.113281 299.003906 170.035156 296.285156 165.636719 291.886719 C 161.242188 287.492188 158.523438 281.417969 158.523438 274.707031 C 158.523438 268.003906 161.242188 261.925781 165.636719 257.527344 C 170.035156 253.132812 176.109375 250.414062 182.816406 250.414062 Z M 263.867188 264.296875 C 266.527344 266.960938 268.175781 270.640625 268.175781 274.710938 C 268.175781 278.78125 266.527344 282.457031 263.867188 285.125 C 261.203125 287.792969 257.523438 289.433594 253.453125 289.433594 C 249.382812 289.433594 245.707031 287.789062 243.039062 285.125 C 240.375 282.460938 238.730469 278.78125 238.730469 274.710938 C 238.730469 270.640625 240.375 266.964844 243.039062 264.296875 C 245.703125 261.636719 249.382812 259.988281 253.453125 259.988281 C 257.523438 259.988281 261.199219 261.636719 263.867188 264.296875 Z M 253.453125 250.414062 C 260.15625 250.414062 266.234375 253.132812 270.632812 257.527344 C 275.027344 261.925781 277.746094 268 277.746094 274.707031 C 277.746094 281.414062 275.027344 287.492188 270.632812 291.886719 C 266.234375 296.285156 260.160156 299.003906 253.453125 299.003906 C 246.746094 299.003906 240.667969 296.285156 236.273438 291.886719 C 231.875 287.492188 229.15625 281.417969 229.15625 274.707031 C 229.15625 268.003906 231.875 261.925781 236.273438 257.527344 C 240.667969 253.132812 246.746094 250.414062 253.453125 250.414062 Z M 334.5 264.296875 C 337.164062 266.960938 338.808594 270.640625 338.808594 274.710938 C 338.808594 278.78125 337.164062 282.457031 334.5 285.125 C 331.835938 287.792969 328.15625 289.433594 324.085938 289.433594 C 320.015625 289.433594 316.339844 287.789062 313.671875 285.125 C 311.003906 282.460938 309.363281 278.78125 309.363281 274.710938 C 309.363281 270.640625 311.011719 266.964844 313.671875 264.296875 C 316.335938 261.632812 320.015625 259.988281 324.085938 259.988281 C 328.15625 259.988281 331.832031 261.636719 334.5 264.296875 Z M 324.085938 250.414062 C 330.792969 250.414062 336.867188 253.132812 341.265625 257.527344 C 345.664062 261.925781 348.382812 268 348.382812 274.707031 C 348.382812 281.414062 345.664062 287.492188 341.265625 291.886719 C 336.867188 296.285156 330.792969 299.003906 324.085938 299.003906 C 317.378906 299.003906 311.304688 296.285156 306.90625 291.886719 C 302.507812 287.492188 299.792969 281.417969 299.792969 274.707031 C 299.792969 268.003906 302.507812 261.925781 306.90625 257.527344 C 311.304688 253.132812 317.378906 250.414062 324.085938 250.414062 Z M 174.136719 161.085938 C 176.78125 161.085938 178.925781 163.226562 178.925781 165.871094 C 178.925781 168.519531 176.78125 170.660156 174.136719 170.660156 L 139.898438 170.660156 C 137.253906 170.660156 135.109375 168.519531 135.109375 165.871094 C 135.109375 163.226562 137.253906 161.085938 139.898438 161.085938 Z M 139.898438 149.796875 C 137.253906 149.796875 135.109375 147.65625 135.109375 145.011719 C 135.109375 142.363281 137.253906 140.222656 139.898438 140.222656 L 174.136719 140.222656 C 176.78125 140.222656 178.925781 142.363281 178.925781 145.011719 C 178.925781 147.65625 176.78125 149.796875 174.136719 149.796875 Z M 405.132812 264.296875 C 407.796875 266.960938 409.441406 270.640625 409.441406 274.710938 C 409.441406 278.78125 407.796875 282.457031 405.132812 285.125 C 402.46875 287.789062 398.789062 289.433594 394.71875 289.433594 C 390.648438 289.433594 386.976562 287.785156 384.308594 285.125 C 381.644531 282.460938 379.996094 278.78125 379.996094 274.710938 C 379.996094 270.640625 381.644531 266.964844 384.308594 264.296875 C 386.96875 261.632812 390.652344 259.988281 394.71875 259.988281 C 398.792969 259.988281 402.464844 261.632812 405.132812 264.296875 Z M 394.71875 250.414062 C 401.425781 250.414062 407.503906 253.128906 411.898438 257.527344 C 416.296875 261.925781 419.015625 268 419.015625 274.707031 C 419.015625 281.414062 416.296875 287.488281 411.898438 291.886719 C 407.503906 296.285156 401.425781 299 394.71875 299 C 388.015625 299 381.9375 296.285156 377.539062 291.886719 C 373.144531 287.488281 370.425781 281.414062 370.425781 274.707031 C 370.425781 268 373.144531 261.925781 377.539062 257.527344 C 381.9375 253.128906 388.011719 250.414062 394.71875 250.414062 Z M 206.183594 79.304688 L 193.605469 66.730469 L 181.03125 79.304688 C 180.875 79.464844 180.707031 79.613281 180.53125 79.75 C 180.433594 79.820312 180.339844 79.886719 180.238281 79.957031 C 180.140625 80.023438 180.039062 80.082031 179.941406 80.140625 C 179.25 80.527344 178.457031 80.746094 177.613281 80.746094 C 176.769531 80.746094 175.972656 80.53125 175.285156 80.140625 C 175.179688 80.082031 175.082031 80.023438 174.984375 79.957031 C 174.882812 79.886719 174.789062 79.820312 174.695312 79.75 C 174.371094 79.5 174.082031 79.207031 173.832031 78.886719 C 173.757812 78.789062 173.691406 78.695312 173.621094 78.59375 C 173.558594 78.492188 173.496094 78.394531 173.441406 78.289062 C 173.054688 77.601562 172.835938 76.804688 172.835938 75.957031 L 172.835938 32.75 L 117.691406 32.75 L 117.691406 184.609375 L 269.550781 184.609375 L 269.550781 32.757812 L 214.40625 32.757812 L 214.40625 75.964844 C 214.40625 76.808594 214.1875 77.605469 213.800781 78.292969 C 213.742188 78.398438 213.683594 78.496094 213.621094 78.597656 C 213.550781 78.703125 213.484375 78.796875 213.410156 78.894531 C 213.164062 79.214844 212.871094 79.507812 212.550781 79.753906 C 212.453125 79.828125 212.359375 79.894531 212.257812 79.964844 C 212.15625 80.03125 212.058594 80.089844 211.957031 80.148438 C 211.269531 80.535156 210.472656 80.753906 209.628906 80.753906 C 208.789062 80.753906 207.992188 80.535156 207.304688 80.148438 C 207.199219 80.089844 207.097656 80.03125 207.003906 79.964844 C 206.902344 79.894531 206.808594 79.828125 206.710938 79.753906 C 206.535156 79.621094 206.367188 79.46875 206.210938 79.3125 Z M 182.394531 64.40625 L 182.394531 32.753906 L 204.824219 32.753906 L 204.824219 64.40625 L 196.992188 56.574219 C 195.121094 54.707031 192.089844 54.707031 190.226562 56.574219 Z M 182.394531 64.40625 " fill-opacity="1" fill-rule="evenodd"/></g><g clip-path="url(#a38c7f1198)"><path fill="#000000" d="M 460.835938 257.003906 L 174.871094 257.003906 C 159.355469 257.003906 145.25 263.355469 135.023438 273.585938 C 124.796875 283.816406 118.441406 297.917969 118.441406 313.433594 C 118.441406 328.945312 124.792969 343.054688 135.023438 353.277344 C 145.253906 363.503906 159.355469 369.859375 174.871094 369.859375 L 460.839844 369.859375 C 476.351562 369.859375 490.460938 363.511719 500.683594 353.277344 C 510.914062 343.050781 517.265625 328.945312 517.265625 313.433594 C 517.265625 297.917969 510.917969 283.8125 500.683594 273.585938 C 490.457031 263.359375 476.351562 257.003906 460.839844 257.003906 Z M 460.945312 279.140625 C 470.339844 279.140625 478.886719 282.988281 485.078125 289.183594 C 491.277344 295.382812 495.125 303.925781 495.125 313.320312 L 495.125 313.542969 C 495.125 322.9375 491.277344 331.484375 485.078125 337.675781 C 478.878906 343.875 470.335938 347.722656 460.945312 347.722656 L 174.757812 347.722656 C 165.359375 347.722656 156.8125 343.875 150.621094 337.675781 C 144.421875 331.480469 140.574219 322.933594 140.574219 313.542969 L 140.574219 313.320312 C 140.574219 303.921875 144.421875 295.378906 150.621094 289.183594 C 156.820312 282.992188 165.363281 279.140625 174.757812 279.140625 Z M 174.761719 269.570312 L 460.945312 269.570312 C 472.980469 269.570312 483.921875 274.488281 491.847656 282.417969 C 499.773438 290.347656 504.699219 301.285156 504.699219 313.324219 L 504.699219 313.546875 C 504.699219 325.585938 499.773438 336.523438 491.847656 344.449219 C 483.921875 352.378906 472.980469 357.300781 460.945312 357.300781 L 174.757812 357.300781 C 162.71875 357.300781 151.777344 352.382812 143.851562 344.449219 C 135.925781 336.523438 131 325.582031 131 313.546875 L 131 313.324219 C 131 301.285156 135.925781 290.34375 143.851562 282.417969 C 151.777344 274.492188 162.71875 269.570312 174.757812 269.570312 Z M 461.054688 20.554688 C 459.382812 19.871094 457.691406 19.269531 455.984375 18.757812 C 454.226562 18.355469 452.773438 16.96875 452.375 15.089844 L 449.824219 3.277344 L 430.382812 3.515625 L 428.230469 14.847656 C 427.980469 16.648438 426.714844 18.226562 424.859375 18.777344 C 423.039062 19.320312 421.257812 19.960938 419.519531 20.6875 C 417.820312 21.394531 416.195312 22.171875 414.65625 23.003906 C 413.140625 23.949219 411.152344 24 409.546875 22.96875 L 399.367188 16.402344 L 385.792969 30.324219 L 392.371094 39.984375 C 393.386719 41.417969 393.570312 43.359375 392.679688 45.011719 C 391.757812 46.714844 390.945312 48.429688 390.242188 50.140625 C 389.558594 51.808594 388.957031 53.5 388.445312 55.207031 C 388.042969 56.96875 386.660156 58.417969 384.78125 58.816406 L 372.964844 61.367188 L 373.207031 80.8125 L 384.535156 82.960938 C 386.339844 83.210938 387.917969 84.476562 388.464844 86.332031 C 389.011719 88.152344 389.644531 89.933594 390.371094 91.671875 C 391.078125 93.371094 391.855469 94.996094 392.691406 96.539062 C 393.632812 98.054688 393.683594 100.039062 392.652344 101.648438 L 386.082031 111.828125 L 400.003906 125.40625 L 409.664062 118.832031 C 411.097656 117.8125 413.039062 117.632812 414.691406 118.523438 C 416.394531 119.445312 418.109375 120.253906 419.820312 120.957031 C 421.488281 121.644531 423.179688 122.242188 424.886719 122.757812 C 426.648438 123.160156 428.097656 124.542969 428.496094 126.421875 L 431.046875 138.238281 L 450.492188 137.996094 L 452.640625 126.667969 C 452.890625 124.863281 454.15625 123.285156 456.011719 122.738281 C 457.832031 122.191406 459.613281 121.558594 461.355469 120.832031 C 463.050781 120.125 464.675781 119.347656 466.21875 118.511719 C 467.734375 117.570312 469.722656 117.519531 471.328125 118.546875 L 481.507812 125.113281 L 495.085938 111.195312 L 488.511719 101.535156 C 487.496094 100.101562 487.3125 98.15625 488.203125 96.507812 C 489.125 94.804688 489.9375 93.089844 490.640625 91.378906 C 491.324219 89.710938 491.921875 88.015625 492.4375 86.3125 C 492.839844 84.554688 494.222656 83.097656 496.101562 82.699219 L 507.917969 80.152344 L 507.675781 60.707031 L 496.347656 58.554688 C 494.542969 58.304688 492.964844 57.039062 492.417969 55.183594 C 491.871094 53.367188 491.238281 51.582031 490.511719 49.84375 C 489.804688 48.148438 489.027344 46.523438 488.191406 44.980469 C 487.25 43.464844 487.199219 41.476562 488.230469 39.871094 L 494.800781 29.6875 L 480.878906 16.113281 L 471.21875 22.6875 C 469.785156 23.703125 467.84375 23.886719 466.191406 22.996094 C 464.488281 22.074219 462.773438 21.261719 461.0625 20.558594 Z M 417.824219 48.707031 C 423.472656 42.921875 431.324219 39.285156 440.050781 39.175781 C 448.773438 39.066406 456.707031 42.503906 462.488281 48.144531 C 468.273438 53.789062 471.90625 61.640625 472.015625 70.367188 C 472.125 79.089844 468.691406 87.023438 463.050781 92.804688 C 457.40625 98.589844 449.554688 102.226562 440.828125 102.335938 C 432.105469 102.445312 424.167969 99.007812 418.390625 93.367188 C 412.601562 87.722656 408.96875 79.871094 408.859375 71.144531 C 408.75 62.421875 412.1875 54.488281 417.824219 48.707031 Z M 366.523438 211.894531 L 412.449219 211.894531 C 415.09375 211.894531 417.234375 214.035156 417.234375 216.679688 L 417.234375 226.148438 L 455.21875 197.660156 L 417.234375 169.167969 L 417.234375 178.636719 C 417.234375 181.28125 415.09375 183.425781 412.449219 183.425781 L 366.523438 183.425781 Z M 187.988281 303.023438 C 190.648438 305.6875 192.296875 309.367188 192.296875 313.4375 C 192.296875 317.507812 190.648438 321.183594 187.988281 323.851562 C 185.324219 326.515625 181.644531 328.160156 177.574219 328.160156 C 173.503906 328.160156 169.828125 326.515625 167.160156 323.851562 C 164.492188 321.1875 162.851562 317.507812 162.851562 313.4375 C 162.851562 309.367188 164.496094 305.691406 167.160156 303.023438 C 169.824219 300.355469 173.503906 298.714844 177.574219 298.714844 C 181.644531 298.714844 185.320312 300.363281 187.988281 303.023438 Z M 177.574219 289.140625 C 184.277344 289.140625 190.355469 291.859375 194.753906 296.253906 C 199.152344 300.652344 201.867188 306.726562 201.867188 313.433594 C 201.867188 320.140625 199.148438 326.21875 194.753906 330.613281 C 190.355469 335.011719 184.28125 337.730469 177.574219 337.730469 C 170.867188 337.730469 164.789062 335.011719 160.394531 330.613281 C 155.996094 326.21875 153.277344 320.144531 153.277344 313.433594 C 153.277344 306.730469 155.996094 300.652344 160.394531 296.253906 C 164.789062 291.859375 170.867188 289.140625 177.574219 289.140625 Z M 258.621094 303.023438 C 261.285156 305.6875 262.929688 309.367188 262.929688 313.4375 C 262.929688 317.507812 261.285156 321.183594 258.621094 323.851562 C 255.957031 326.515625 252.277344 328.160156 248.207031 328.160156 C 244.136719 328.160156 240.460938 326.515625 237.792969 323.851562 C 235.125 321.1875 233.484375 317.507812 233.484375 313.4375 C 233.484375 309.367188 235.132812 305.691406 237.792969 303.023438 C 240.457031 300.355469 244.136719 298.714844 248.207031 298.714844 C 252.277344 298.714844 255.953125 300.363281 258.621094 303.023438 Z M 248.207031 289.140625 C 254.914062 289.140625 260.988281 291.859375 265.386719 296.253906 C 269.785156 300.652344 272.503906 306.726562 272.503906 313.433594 C 272.503906 320.140625 269.785156 326.21875 265.386719 330.613281 C 260.988281 335.011719 254.914062 337.730469 248.207031 337.730469 C 241.5 337.730469 235.425781 335.011719 231.027344 330.613281 C 226.628906 326.21875 223.914062 320.144531 223.914062 313.433594 C 223.914062 306.730469 226.628906 300.652344 231.027344 296.253906 C 235.425781 291.859375 241.5 289.140625 248.207031 289.140625 Z M 329.253906 303.023438 C 331.917969 305.6875 333.566406 309.367188 333.566406 313.4375 C 333.566406 317.507812 331.917969 321.183594 329.253906 323.851562 C 326.589844 326.519531 322.910156 328.160156 318.839844 328.160156 C 314.769531 328.160156 311.097656 326.515625 308.429688 323.851562 C 305.765625 321.1875 304.117188 317.507812 304.117188 313.4375 C 304.117188 309.367188 305.765625 305.691406 308.429688 303.023438 C 311.089844 300.363281 314.773438 298.714844 318.839844 298.714844 C 322.914062 298.714844 326.585938 300.363281 329.253906 303.023438 Z M 318.839844 289.140625 C 325.546875 289.140625 331.625 291.859375 336.019531 296.253906 C 340.417969 300.652344 343.136719 306.726562 343.136719 313.433594 C 343.136719 320.140625 340.417969 326.21875 336.019531 330.613281 C 331.625 335.011719 325.550781 337.730469 318.839844 337.730469 C 312.136719 337.730469 306.058594 335.011719 301.660156 330.613281 C 297.265625 326.21875 294.546875 320.144531 294.546875 313.433594 C 294.546875 306.730469 297.265625 300.652344 301.660156 296.253906 C 306.058594 291.859375 312.132812 289.140625 318.839844 289.140625 Z M 399.890625 303.023438 C 402.550781 305.6875 404.199219 309.367188 404.199219 313.4375 C 404.199219 317.507812 402.550781 321.183594 399.890625 323.851562 C 397.226562 326.519531 393.546875 328.160156 389.476562 328.160156 C 385.40625 328.160156 381.730469 326.515625 379.0625 323.851562 C 376.394531 321.1875 374.753906 317.507812 374.753906 313.4375 C 374.753906 309.367188 376.398438 305.691406 379.0625 303.023438 C 381.726562 300.355469 385.40625 298.714844 389.476562 298.714844 C 393.546875 298.714844 397.222656 300.363281 399.890625 303.023438 Z M 389.476562 289.140625 C 396.179688 289.140625 402.257812 291.859375 406.65625 296.253906 C 411.054688 300.652344 413.769531 306.726562 413.769531 313.433594 C 413.769531 320.140625 411.050781 326.21875 406.65625 330.613281 C 402.257812 335.011719 396.183594 337.730469 389.476562 337.730469 C 382.769531 337.730469 376.691406 335.011719 372.296875 330.613281 C 367.898438 326.21875 365.179688 320.144531 365.179688 313.433594 C 365.179688 306.730469 367.898438 300.652344 372.296875 296.253906 C 376.691406 291.859375 382.769531 289.140625 389.476562 289.140625 Z M 239.527344 199.8125 C 242.171875 199.8125 244.3125 201.953125 244.3125 204.597656 C 244.3125 207.246094 242.171875 209.386719 239.527344 209.386719 L 205.285156 209.386719 C 202.640625 209.386719 200.5 207.246094 200.5 204.597656 C 200.5 201.953125 202.640625 199.8125 205.285156 199.8125 Z M 205.285156 188.523438 C 202.640625 188.523438 200.5 186.382812 200.5 183.738281 C 200.5 181.089844 202.640625 178.949219 205.285156 178.949219 L 239.527344 178.949219 C 242.171875 178.949219 244.3125 181.089844 244.3125 183.738281 C 244.3125 186.382812 242.171875 188.523438 239.527344 188.523438 Z M 470.523438 303.023438 C 473.1875 305.6875 474.832031 309.367188 474.832031 313.4375 C 474.832031 317.507812 473.1875 321.183594 470.523438 323.851562 C 467.859375 326.515625 464.179688 328.160156 460.109375 328.160156 C 456.039062 328.160156 452.363281 326.511719 449.695312 323.851562 C 447.035156 321.1875 445.386719 317.507812 445.386719 313.4375 C 445.386719 309.367188 447.035156 305.691406 449.695312 303.023438 C 452.359375 300.359375 456.039062 298.714844 460.109375 298.714844 C 464.179688 298.714844 467.855469 300.359375 470.523438 303.023438 Z M 460.109375 289.140625 C 466.816406 289.140625 472.890625 291.855469 477.289062 296.253906 C 481.6875 300.652344 484.402344 306.726562 484.402344 313.433594 C 484.402344 320.140625 481.6875 326.214844 477.289062 330.613281 C 472.890625 335.011719 466.816406 337.726562 460.109375 337.726562 C 453.402344 337.726562 447.328125 335.011719 442.929688 330.613281 C 438.53125 326.214844 435.816406 320.140625 435.816406 313.433594 C 435.816406 306.726562 438.53125 300.652344 442.929688 296.253906 C 447.328125 291.855469 453.402344 289.140625 460.109375 289.140625 Z M 271.574219 118.03125 L 258.992188 105.457031 L 246.417969 118.03125 C 246.265625 118.191406 246.097656 118.339844 245.921875 118.472656 C 245.824219 118.546875 245.730469 118.613281 245.628906 118.683594 C 245.527344 118.75 245.429688 118.808594 245.328125 118.867188 C 244.640625 119.253906 243.84375 119.472656 243.003906 119.472656 C 242.160156 119.472656 241.363281 119.257812 240.675781 118.867188 C 240.570312 118.808594 240.46875 118.75 240.375 118.683594 C 240.273438 118.613281 240.179688 118.546875 240.082031 118.472656 C 239.761719 118.226562 239.46875 117.933594 239.222656 117.613281 C 239.148438 117.515625 239.082031 117.421875 239.011719 117.320312 C 238.949219 117.21875 238.886719 117.121094 238.832031 117.015625 C 238.445312 116.328125 238.226562 115.53125 238.226562 114.683594 L 238.226562 71.476562 L 183.082031 71.476562 L 183.082031 223.335938 L 334.941406 223.335938 L 334.941406 71.484375 L 279.796875 71.484375 L 279.796875 114.691406 C 279.796875 115.535156 279.578125 116.328125 279.191406 117.019531 C 279.132812 117.125 279.074219 117.222656 279.007812 117.324219 C 278.941406 117.429688 278.875 117.523438 278.800781 117.621094 C 278.550781 117.941406 278.261719 118.234375 277.9375 118.480469 C 277.84375 118.554688 277.75 118.621094 277.648438 118.691406 C 277.546875 118.757812 277.449219 118.816406 277.347656 118.875 C 276.660156 119.261719 275.863281 119.480469 275.019531 119.480469 C 274.175781 119.480469 273.382812 119.261719 272.691406 118.875 C 272.585938 118.816406 272.488281 118.757812 272.390625 118.691406 C 272.292969 118.621094 272.199219 118.554688 272.101562 118.480469 C 271.925781 118.347656 271.757812 118.195312 271.601562 118.039062 Z M 247.785156 103.132812 L 247.785156 71.480469 L 270.210938 71.480469 L 270.210938 103.132812 L 262.382812 95.300781 C 260.511719 93.433594 257.480469 93.433594 255.617188 95.300781 Z M 247.785156 103.132812 " fill-opacity="1" fill-rule="evenodd"/></g></svg>